<svg version="1.1" viewBox="0.0 0.0 399.0 411.0" fill="none" stroke="none" stroke-linecap="square" stroke-miterlimit="10" width="399" height="411" xmlns:xlink="http://www.w3.org/1999/xlink" xmlns="http://www.w3.org/2000/svg"><path fill="#ffffff" d="M0 0L399.0 0L399.0 411.0L0 411.0L0 0Z" fill-rule="nonzero"/><path stroke="#cccccc" stroke-width="1.0" stroke-linecap="butt" d="M69.5 371.5L379.5 371.5" fill-rule="nonzero"/><path stroke="#cccccc" stroke-width="1.0" stroke-linecap="butt" d="M69.5 294.5L379.5 294.5" fill-rule="nonzero"/><path stroke="#cccccc" stroke-width="1.0" stroke-linecap="butt" d="M69.5 217.5L379.5 217.5" fill-rule="nonzero"/><path stroke="#cccccc" stroke-width="1.0" stroke-linecap="butt" d="M69.5 140.5L379.5 140.5" fill-rule="nonzero"/><path stroke="#cccccc" stroke-width="1.0" stroke-linecap="butt" d="M69.5 64.5L379.5 64.5" fill-rule="nonzero"/><clipPath id="id_0"><path d="M69.95 64.25L379.05 64.25L379.05 371.05L69.95 371.05L69.95 64.25Z" clip-rule="nonzero"/></clipPath><path stroke="#000000" stroke-width="2.0" stroke-linecap="butt" stroke-opacity="0.0" clip-path="url(#id_0)" d="M141.0 371.0L95.0 371.0L95.0 111.0C95.0 109.89543 95.89543 109.0 97.0 109.0L139.0 109.0C140.10457 109.0 141.0 109.89543 141.0 111.0Z" fill-rule="nonzero"/><path fill="#5891ad" clip-path="url(#id_0)" d="M141.0 371.0L95.0 371.0L95.0 111.0C95.0 109.89543 95.89543 109.0 97.0 109.0L139.0 109.0C140.10457 109.0 141.0 109.89543 141.0 111.0Z" fill-rule="nonzero"/><path stroke="#000000" stroke-width="2.0" stroke-linecap="butt" stroke-opacity="0.0" clip-path="url(#id_0)" d="M212.0 371.0L166.0 371.0L166.0 137.0C166.0 135.89543 166.89543 135.0 168.0 135.0L210.0 135.0C211.10457 135.0 212.0 135.89543 212.0 137.0Z" fill-rule="nonzero"/><path fill="#5891ad" clip-path="url(#id_0)" d="M212.0 371.0L166.0 371.0L166.0 137.0C166.0 135.89543 166.89543 135.0 168.0 135.0L210.0 135.0C211.10457 135.0 212.0 135.89543 212.0 137.0Z" fill-rule="nonzero"/><path stroke="#000000" stroke-width="2.0" stroke-linecap="butt" stroke-opacity="0.0" clip-path="url(#id_0)" d="M283.0 371.0L237.0 371.0L237.0 164.0C237.0 162.89543 237.89543 162.0 239.0 162.0L281.0 162.0C282.10458 162.0 283.0 162.89543 283.0 164.0Z" fill-rule="nonzero"/><path fill="#5891ad" clip-path="url(#id_0)" d="M283.0 371.0L237.0 371.0L237.0 164.0C237.0 162.89543 237.89543 162.0 239.0 162.0L281.0 162.0C282.10458 162.0 283.0 162.89543 283.0 164.0Z" fill-rule="nonzero"/><path stroke="#000000" stroke-width="2.0" stroke-linecap="butt" stroke-opacity="0.0" clip-path="url(#id_0)" d="M354.0 371.0L308.0 371.0L308.0 284.0C308.0 282.89542 308.89542 282.0 310.0 282.0L352.0 282.0C353.10458 282.0 354.0 282.89542 354.0 284.0Z" fill-rule="nonzero"/><path fill="#5891ad" clip-path="url(#id_0)" d="M354.0 371.0L308.0 371.0L308.0 284.0C308.0 282.89542 308.89542 282.0 310.0 282.0L352.0 282.0C353.10458 282.0 354.0 282.89542 354.0 284.0Z" fill-rule="nonzero"/><path fill="#000000" d="M25.996876 374.03436L25.996876 375.05L20.309376 375.05Q20.309376 374.675 20.434376 374.3156Q20.653126 373.7375 21.121876 373.175Q21.60625 372.6125 22.5125 371.8781Q23.91875 370.72186 24.403126 370.05Q24.903126 369.3781 24.903126 368.78436Q24.903126 368.15936 24.45 367.7375Q23.996876 367.3 23.278126 367.3Q22.5125 367.3 22.059376 367.7531Q21.60625 368.20624 21.590626 369.01874L20.5125 368.90936Q20.621876 367.6906 21.340626 367.0656Q22.075 366.425 23.309376 366.425Q24.54375 366.425 25.2625 367.1125Q25.98125 367.8 25.98125 368.8156Q25.98125 369.33124 25.7625 369.83124Q25.559376 370.3156 25.059376 370.8781Q24.575 371.425 23.45 372.3781Q22.496876 373.175 22.215626 373.47186Q21.95 373.7531 21.778126 374.03436L25.996876 374.03436ZM27.45 370.8156Q27.45 369.28436 27.7625 368.3625Q28.075 367.425 28.684376 366.925Q29.309376 366.425 30.246876 366.425Q30.934376 366.425 31.45 366.70624Q31.98125 366.9875 32.325 367.51874Q32.66875 368.03436 32.85625 368.78436Q33.04375 369.53436 33.04375 370.8156Q33.04375 372.33124 32.73125 373.2531Q32.434376 374.175 31.809376 374.6906Q31.2 375.1906 30.246876 375.1906Q29.0125 375.1906 28.29375 374.3Q27.45 373.2375 27.45 370.8156ZM28.528126 370.8156Q28.528126 372.925 29.028126 373.6281Q29.528126 374.33124 30.246876 374.33124Q30.98125 374.33124 31.465626 373.6281Q31.965626 372.925 31.965626 370.8156Q31.965626 368.6906 31.465626 368.0031Q30.98125 367.3 30.23125 367.3Q29.5125 367.3 29.075 367.90936Q28.528126 368.6906 28.528126 370.8156ZM34.45 370.8156Q34.45 369.28436 34.7625 368.3625Q35.075 367.425 35.684376 366.925Q36.309376 366.425 37.246876 366.425Q37.934376 366.425 38.45 366.70624Q38.98125 366.9875 39.325 367.51874Q39.66875 368.03436 39.85625 368.78436Q40.04375 369.53436 40.04375 370.8156Q40.04375 372.33124 39.73125 373.2531Q39.434376 374.175 38.809376 374.6906Q38.2 375.1906 37.246876 375.1906Q36.0125 375.1906 35.29375 374.3Q34.45 373.2375 34.45 370.8156ZM35.528126 370.8156Q35.528126 372.925 36.028126 373.6281Q36.528126 374.33124 37.246876 374.33124Q37.98125 374.33124 38.465626 373.6281Q38.965626 372.925 38.965626 370.8156Q38.965626 368.6906 38.465626 368.0031Q37.98125 367.3 37.23125 367.3Q36.5125 367.3 36.075 367.90936Q35.528126 368.6906 35.528126 370.8156ZM44.840626 375.05L44.840626 366.45624L46.559376 366.45624L48.590626 372.53436Q48.871876 373.39374 48.996876 373.8156Q49.1375 373.34686 49.45 372.4406L51.5125 366.45624L53.04375 366.45624L53.04375 375.05L51.95 375.05L51.95 367.8625L49.45 375.05L48.41875 375.05L45.934376 367.7375L45.934376 375.05L44.840626 375.05ZM54.075 375.05L54.075 366.45624L55.2 366.45624L55.2 375.05L54.075 375.05ZM56.825 375.05L56.825 366.45624L60.059376 366.45624Q61.04375 366.45624 61.6375 366.72186Q62.23125 366.9875 62.559376 367.53436Q62.903126 368.0656 62.903126 368.65936Q62.903126 369.20624 62.60625 369.6906Q62.309376 370.175 61.7 370.47186Q62.48125 370.70624 62.8875 371.26874Q63.309376 371.8156 63.309376 372.5656Q63.309376 373.15936 63.059376 373.6906Q62.809376 374.20624 62.434376 374.4875Q62.059376 374.76874 61.48125 374.90936Q60.91875 375.05 60.10625 375.05L56.825 375.05ZM57.965626 370.0656L59.825 370.0656Q60.575 370.0656 60.903126 369.97186Q61.340626 369.84686 61.559376 369.55Q61.778126 369.2375 61.778126 368.78436Q61.778126 368.3625 61.575 368.03436Q61.371876 367.70624 60.98125 367.59686Q60.60625 367.47186 59.684376 367.47186L57.965626 367.47186L57.965626 370.0656ZM57.965626 374.03436L60.10625 374.03436Q60.653126 374.03436 60.871876 373.9875Q61.278126 373.925 61.528126 373.76874Q61.79375 373.59686 61.965626 373.28436Q62.1375 372.97186 62.1375 372.5656Q62.1375 372.08124 61.8875 371.72186Q61.653126 371.3625 61.215626 371.22186Q60.778126 371.08124 59.95 371.08124L57.965626 371.08124L57.965626 374.03436Z" fill-rule="nonzero"/><path fill="#000000" d="M20.45 296.08438L21.5125 295.94376Q21.684376 296.83438 22.121876 297.24063Q22.559376 297.63126 23.184376 297.63126Q23.934376 297.63126 24.45 297.11563Q24.965626 296.6 24.965626 295.83438Q24.965626 295.11563 24.48125 294.64688Q24.0125 294.1625 23.278126 294.1625Q22.98125 294.1625 22.528126 294.2875L22.653126 293.35Q22.7625 293.36563 22.825 293.36563Q23.496876 293.36563 24.028126 293.02188Q24.575 292.6625 24.575 291.92813Q24.575 291.35 24.184376 290.975Q23.79375 290.58438 23.16875 290.58438Q22.559376 290.58438 22.1375 290.975Q21.73125 291.36563 21.621876 292.13126L20.559376 291.94376Q20.746876 290.89688 21.434376 290.31876Q22.121876 289.725 23.1375 289.725Q23.840626 289.725 24.434376 290.0375Q25.028126 290.33438 25.340626 290.85Q25.653126 291.36563 25.653126 291.95938Q25.653126 292.50626 25.35625 292.975Q25.059376 293.42813 24.48125 293.69376Q25.23125 293.86563 25.653126 294.42813Q26.075 294.975 26.075 295.81876Q26.075 296.94376 25.246876 297.725Q24.434376 298.50626 23.184376 298.50626Q22.059376 298.50626 21.309376 297.83438Q20.559376 297.14688 20.45 296.08438ZM27.45 294.11563Q27.45 292.58438 27.7625 291.6625Q28.075 290.725 28.684376 290.225Q29.309376 289.725 30.246876 289.725Q30.934376 289.725 31.45 290.00626Q31.98125 290.2875 32.325 290.81876Q32.66875 291.33438 32.85625 292.08438Q33.04375 292.83438 33.04375 294.11563Q33.04375 295.63126 32.73125 296.55313Q32.434376 297.475 31.809376 297.99063Q31.2 298.49063 30.246876 298.49063Q29.0125 298.49063 28.29375 297.6Q27.45 296.5375 27.45 294.11563ZM28.528126 294.11563Q28.528126 296.225 29.028126 296.92813Q29.528126 297.63126 30.246876 297.63126Q30.98125 297.63126 31.465626 296.92813Q31.965626 296.225 31.965626 294.11563Q31.965626 291.99063 31.465626 291.30313Q30.98125 290.6 30.23125 290.6Q29.5125 290.6 29.075 291.20938Q28.528126 291.99063 28.528126 294.11563ZM34.45 294.11563Q34.45 292.58438 34.7625 291.6625Q35.075 290.725 35.684376 290.225Q36.309376 289.725 37.246876 289.725Q37.934376 289.725 38.45 290.00626Q38.98125 290.2875 39.325 290.81876Q39.66875 291.33438 39.85625 292.08438Q40.04375 292.83438 40.04375 294.11563Q40.04375 295.63126 39.73125 296.55313Q39.434376 297.475 38.809376 297.99063Q38.2 298.49063 37.246876 298.49063Q36.0125 298.49063 35.29375 297.6Q34.45 296.5375 34.45 294.11563ZM35.528126 294.11563Q35.528126 296.225 36.028126 296.92813Q36.528126 297.63126 37.246876 297.63126Q37.98125 297.63126 38.465626 296.92813Q38.965626 296.225 38.965626 294.11563Q38.965626 291.99063 38.465626 291.30313Q37.98125 290.6 37.23125 290.6Q36.5125 290.6 36.075 291.20938Q35.528126 291.99063 35.528126 294.11563ZM44.840626 298.35L44.840626 289.75626L46.559376 289.75626L48.590626 295.83438Q48.871876 296.69376 48.996876 297.11563Q49.1375 296.64688 49.45 295.74063L51.5125 289.75626L53.04375 289.75626L53.04375 298.35L51.95 298.35L51.95 291.1625L49.45 298.35L48.41875 298.35L45.934376 291.0375L45.934376 298.35L44.840626 298.35ZM54.075 298.35L54.075 289.75626L55.2 289.75626L55.2 298.35L54.075 298.35ZM56.825 298.35L56.825 289.75626L60.059376 289.75626Q61.04375 289.75626 61.6375 290.02188Q62.23125 290.2875 62.559376 290.83438Q62.903126 291.36563 62.903126 291.95938Q62.903126 292.50626 62.60625 292.99063Q62.309376 293.475 61.7 293.77188Q62.48125 294.00626 62.8875 294.56876Q63.309376 295.11563 63.309376 295.86563Q63.309376 296.45938 63.059376 296.99063Q62.809376 297.50626 62.434376 297.7875Q62.059376 298.06876 61.48125 298.20938Q60.91875 298.35 60.10625 298.35L56.825 298.35ZM57.965626 293.36563L59.825 293.36563Q60.575 293.36563 60.903126 293.27188Q61.340626 293.14688 61.559376 292.85Q61.778126 292.5375 61.778126 292.08438Q61.778126 291.6625 61.575 291.33438Q61.371876 291.00626 60.98125 290.89688Q60.60625 290.77188 59.684376 290.77188L57.965626 290.77188L57.965626 293.36563ZM57.965626 297.33438L60.10625 297.33438Q60.653126 297.33438 60.871876 297.2875Q61.278126 297.225 61.528126 297.06876Q61.79375 296.89688 61.965626 296.58438Q62.1375 296.27188 62.1375 295.86563Q62.1375 295.38126 61.8875 295.02188Q61.653126 294.6625 61.215626 294.52188Q60.778126 294.38126 59.95 294.38126L57.965626 294.38126L57.965626 297.33438Z" fill-rule="nonzero"/><path fill="#000000" d="M23.825 221.65L23.825 219.5875L20.10625 219.5875L20.10625 218.61874L24.028126 213.05624L24.8875 213.05624L24.8875 218.61874L26.04375 218.61874L26.04375 219.5875L24.8875 219.5875L24.8875 221.65L23.825 221.65ZM23.825 218.61874L23.825 214.75937L21.1375 218.61874L23.825 218.61874ZM27.45 217.41562Q27.45 215.88437 27.7625 214.9625Q28.075 214.025 28.684376 213.525Q29.309376 213.025 30.246876 213.025Q30.934376 213.025 31.45 213.30624Q31.98125 213.5875 32.325 214.11874Q32.66875 214.63437 32.85625 215.38437Q33.04375 216.13437 33.04375 217.41562Q33.04375 218.93124 32.73125 219.85312Q32.434376 220.775 31.809376 221.29062Q31.2 221.79062 30.246876 221.79062Q29.0125 221.79062 28.29375 220.9Q27.45 219.8375 27.45 217.41562ZM28.528126 217.41562Q28.528126 219.525 29.028126 220.22812Q29.528126 220.93124 30.246876 220.93124Q30.98125 220.93124 31.465626 220.22812Q31.965626 219.525 31.965626 217.41562Q31.965626 215.29062 31.465626 214.60312Q30.98125 213.9 30.23125 213.9Q29.5125 213.9 29.075 214.50937Q28.528126 215.29062 28.528126 217.41562ZM34.45 217.41562Q34.45 215.88437 34.7625 214.9625Q35.075 214.025 35.684376 213.525Q36.309376 213.025 37.246876 213.025Q37.934376 213.025 38.45 213.30624Q38.98125 213.5875 39.325 214.11874Q39.66875 214.63437 39.85625 215.38437Q40.04375 216.13437 40.04375 217.41562Q40.04375 218.93124 39.73125 219.85312Q39.434376 220.775 38.809376 221.29062Q38.2 221.79062 37.246876 221.79062Q36.0125 221.79062 35.29375 220.9Q34.45 219.8375 34.45 217.41562ZM35.528126 217.41562Q35.528126 219.525 36.028126 220.22812Q36.528126 220.93124 37.246876 220.93124Q37.98125 220.93124 38.465626 220.22812Q38.965626 219.525 38.965626 217.41562Q38.965626 215.29062 38.465626 214.60312Q37.98125 213.9 37.23125 213.9Q36.5125 213.9 36.075 214.50937Q35.528126 215.29062 35.528126 217.41562ZM44.840626 221.65L44.840626 213.05624L46.559376 213.05624L48.590626 219.13437Q48.871876 219.99374 48.996876 220.41562Q49.1375 219.94687 49.45 219.04062L51.5125 213.05624L53.04375 213.05624L53.04375 221.65L51.95 221.65L51.95 214.4625L49.45 221.65L48.41875 221.65L45.934376 214.3375L45.934376 221.65L44.840626 221.65ZM54.075 221.65L54.075 213.05624L55.2 213.05624L55.2 221.65L54.075 221.65ZM56.825 221.65L56.825 213.05624L60.059376 213.05624Q61.04375 213.05624 61.6375 213.32187Q62.23125 213.5875 62.559376 214.13437Q62.903126 214.66562 62.903126 215.25937Q62.903126 215.80624 62.60625 216.29062Q62.309376 216.775 61.7 217.07187Q62.48125 217.30624 62.8875 217.86874Q63.309376 218.41562 63.309376 219.16562Q63.309376 219.75937 63.059376 220.29062Q62.809376 220.80624 62.434376 221.0875Q62.059376 221.36874 61.48125 221.50937Q60.91875 221.65 60.10625 221.65L56.825 221.65ZM57.965626 216.66562L59.825 216.66562Q60.575 216.66562 60.903126 216.57187Q61.340626 216.44687 61.559376 216.15Q61.778126 215.8375 61.778126 215.38437Q61.778126 214.9625 61.575 214.63437Q61.371876 214.30624 60.98125 214.19687Q60.60625 214.07187 59.684376 214.07187L57.965626 214.07187L57.965626 216.66562ZM57.965626 220.63437L60.10625 220.63437Q60.653126 220.63437 60.871876 220.5875Q61.278126 220.525 61.528126 220.36874Q61.79375 220.19687 61.965626 219.88437Q62.1375 219.57187 62.1375 219.16562Q62.1375 218.68124 61.8875 218.32187Q61.653126 217.9625 61.215626 217.82187Q60.778126 217.68124 59.95 217.68124L57.965626 217.68124L57.965626 220.63437Z" fill-rule="nonzero"/><path fill="#000000" d="M20.45 142.7L21.559376 142.60625Q21.684376 143.41875 22.121876 143.825Q22.575 144.23125 23.215626 144.23125Q23.965626 144.23125 24.496876 143.65312Q25.028126 143.075 25.028126 142.1375Q25.028126 141.23125 24.5125 140.71562Q24.0125 140.18437 23.184376 140.18437Q22.684376 140.18437 22.2625 140.41875Q21.85625 140.65312 21.621876 141.0125L20.6375 140.8875L21.465626 136.48125L25.746876 136.48125L25.746876 137.48125L22.309376 137.48125L21.85625 139.79375Q22.621876 139.24687 23.465626 139.24687Q24.590626 139.24687 25.35625 140.02812Q26.1375 140.80937 26.1375 142.04375Q26.1375 143.2 25.465626 144.05937Q24.6375 145.09062 23.215626 145.09062Q22.04375 145.09062 21.29375 144.43437Q20.559376 143.77812 20.45 142.7ZM27.45 140.71562Q27.45 139.18437 27.7625 138.2625Q28.075 137.325 28.684376 136.825Q29.309376 136.325 30.246876 136.325Q30.934376 136.325 31.45 136.60625Q31.98125 136.8875 32.325 137.41875Q32.66875 137.93437 32.85625 138.68437Q33.04375 139.43437 33.04375 140.71562Q33.04375 142.23125 32.73125 143.15312Q32.434376 144.075 31.809376 144.59062Q31.2 145.09062 30.246876 145.09062Q29.0125 145.09062 28.29375 144.2Q27.45 143.1375 27.45 140.71562ZM28.528126 140.71562Q28.528126 142.825 29.028126 143.52812Q29.528126 144.23125 30.246876 144.23125Q30.98125 144.23125 31.465626 143.52812Q31.965626 142.825 31.965626 140.71562Q31.965626 138.59062 31.465626 137.90312Q30.98125 137.2 30.23125 137.2Q29.5125 137.2 29.075 137.80937Q28.528126 138.59062 28.528126 140.71562ZM34.45 140.71562Q34.45 139.18437 34.7625 138.2625Q35.075 137.325 35.684376 136.825Q36.309376 136.325 37.246876 136.325Q37.934376 136.325 38.45 136.60625Q38.98125 136.8875 39.325 137.41875Q39.66875 137.93437 39.85625 138.68437Q40.04375 139.43437 40.04375 140.71562Q40.04375 142.23125 39.73125 143.15312Q39.434376 144.075 38.809376 144.59062Q38.2 145.09062 37.246876 145.09062Q36.0125 145.09062 35.29375 144.2Q34.45 143.1375 34.45 140.71562ZM35.528126 140.71562Q35.528126 142.825 36.028126 143.52812Q36.528126 144.23125 37.246876 144.23125Q37.98125 144.23125 38.465626 143.52812Q38.965626 142.825 38.965626 140.71562Q38.965626 138.59062 38.465626 137.90312Q37.98125 137.2 37.23125 137.2Q36.5125 137.2 36.075 137.80937Q35.528126 138.59062 35.528126 140.71562ZM44.840626 144.95L44.840626 136.35625L46.559376 136.35625L48.590626 142.43437Q48.871876 143.29375 48.996876 143.71562Q49.1375 143.24687 49.45 142.34062L51.5125 136.35625L53.04375 136.35625L53.04375 144.95L51.95 144.95L51.95 137.7625L49.45 144.95L48.41875 144.95L45.934376 137.6375L45.934376 144.95L44.840626 144.95ZM54.075 144.95L54.075 136.35625L55.2 136.35625L55.2 144.95L54.075 144.95ZM56.825 144.95L56.825 136.35625L60.059376 136.35625Q61.04375 136.35625 61.6375 136.62187Q62.23125 136.8875 62.559376 137.43437Q62.903126 137.96562 62.903126 138.55937Q62.903126 139.10625 62.60625 139.59062Q62.309376 140.075 61.7 140.37187Q62.48125 140.60625 62.8875 141.16875Q63.309376 141.71562 63.309376 142.46562Q63.309376 143.05937 63.059376 143.59062Q62.809376 144.10625 62.434376 144.3875Q62.059376 144.66875 61.48125 144.80937Q60.91875 144.95 60.10625 144.95L56.825 144.95ZM57.965626 139.96562L59.825 139.96562Q60.575 139.96562 60.903126 139.87187Q61.340626 139.74687 61.559376 139.45Q61.778126 139.1375 61.778126 138.68437Q61.778126 138.2625 61.575 137.93437Q61.371876 137.60625 60.98125 137.49687Q60.60625 137.37187 59.684376 137.37187L57.965626 137.37187L57.965626 139.96562ZM57.965626 143.93437L60.10625 143.93437Q60.653126 143.93437 60.871876 143.8875Q61.278126 143.825 61.528126 143.66875Q61.79375 143.49687 61.965626 143.18437Q62.1375 142.87187 62.1375 142.46562Q62.1375 141.98125 61.8875 141.62187Q61.653126 141.2625 61.215626 141.12187Q60.778126 140.98125 59.95 140.98125L57.965626 140.98125L57.965626 143.93437Z" fill-rule="nonzero"/><path fill="#000000" d="M25.91875 61.765625L24.871876 61.84375Q24.73125 61.21875 24.48125 60.9375Q24.04375 60.484375 23.41875 60.484375Q22.91875 60.484375 22.528126 60.765625Q22.04375 61.140625 21.746876 61.84375Q21.465626 62.53125 21.45 63.8125Q21.825 63.234375 22.371876 62.953125Q22.934376 62.671875 23.54375 62.671875Q24.590626 62.671875 25.325 63.453125Q26.075 64.234375 26.075 65.453125Q26.075 66.265625 25.715626 66.96875Q25.371876 67.65625 24.7625 68.03125Q24.153126 68.390625 23.3875 68.390625Q22.059376 68.390625 21.23125 67.421875Q20.403126 66.453125 20.403126 64.234375Q20.403126 61.734375 21.325 60.609375Q22.121876 59.625 23.48125 59.625Q24.496876 59.625 25.1375 60.203125Q25.79375 60.765625 25.91875 61.765625ZM21.621876 65.46875Q21.621876 66.015625 21.840626 66.515625Q22.075 67.0 22.48125 67.265625Q22.903126 67.53125 23.371876 67.53125Q24.028126 67.53125 24.5125 67.0Q24.996876 66.453125 24.996876 65.53125Q24.996876 64.640625 24.5125 64.125Q24.04375 63.609375 23.325 63.609375Q22.60625 63.609375 22.10625 64.125Q21.621876 64.640625 21.621876 65.46875ZM27.45 64.015625Q27.45 62.484375 27.7625 61.5625Q28.075 60.625 28.684376 60.125Q29.309376 59.625 30.246876 59.625Q30.934376 59.625 31.45 59.90625Q31.98125 60.1875 32.325 60.71875Q32.66875 61.234375 32.85625 61.984375Q33.04375 62.734375 33.04375 64.015625Q33.04375 65.53125 32.73125 66.453125Q32.434376 67.375 31.809376 67.890625Q31.2 68.390625 30.246876 68.390625Q29.0125 68.390625 28.29375 67.5Q27.45 66.4375 27.45 64.015625ZM28.528126 64.015625Q28.528126 66.125 29.028126 66.828125Q29.528126 67.53125 30.246876 67.53125Q30.98125 67.53125 31.465626 66.828125Q31.965626 66.125 31.965626 64.015625Q31.965626 61.890625 31.465626 61.203125Q30.98125 60.5 30.23125 60.5Q29.5125 60.5 29.075 61.109375Q28.528126 61.890625 28.528126 64.015625ZM34.45 64.015625Q34.45 62.484375 34.7625 61.5625Q35.075 60.625 35.684376 60.125Q36.309376 59.625 37.246876 59.625Q37.934376 59.625 38.45 59.90625Q38.98125 60.1875 39.325 60.71875Q39.66875 61.234375 39.85625 61.984375Q40.04375 62.734375 40.04375 64.015625Q40.04375 65.53125 39.73125 66.453125Q39.434376 67.375 38.809376 67.890625Q38.2 68.390625 37.246876 68.390625Q36.0125 68.390625 35.29375 67.5Q34.45 66.4375 34.45 64.015625ZM35.528126 64.015625Q35.528126 66.125 36.028126 66.828125Q36.528126 67.53125 37.246876 67.53125Q37.98125 67.53125 38.465626 66.828125Q38.965626 66.125 38.965626 64.015625Q38.965626 61.890625 38.465626 61.203125Q37.98125 60.5 37.23125 60.5Q36.5125 60.5 36.075 61.109375Q35.528126 61.890625 35.528126 64.015625ZM44.840626 68.25L44.840626 59.65625L46.559376 59.65625L48.590626 65.734375Q48.871876 66.59375 48.996876 67.015625Q49.1375 66.546875 49.45 65.640625L51.5125 59.65625L53.04375 59.65625L53.04375 68.25L51.95 68.25L51.95 61.0625L49.45 68.25L48.41875 68.25L45.934376 60.9375L45.934376 68.25L44.840626 68.25ZM54.075 68.25L54.075 59.65625L55.2 59.65625L55.2 68.25L54.075 68.25ZM56.825 68.25L56.825 59.65625L60.059376 59.65625Q61.04375 59.65625 61.6375 59.921875Q62.23125 60.1875 62.559376 60.734375Q62.903126 61.265625 62.903126 61.859375Q62.903126 62.40625 62.60625 62.890625Q62.309376 63.375 61.7 63.671875Q62.48125 63.90625 62.8875 64.46875Q63.309376 65.015625 63.309376 65.765625Q63.309376 66.359375 63.059376 66.890625Q62.809376 67.40625 62.434376 67.6875Q62.059376 67.96875 61.48125 68.109375Q60.91875 68.25 60.10625 68.25L56.825 68.25ZM57.965626 63.265625L59.825 63.265625Q60.575 63.265625 60.903126 63.171875Q61.340626 63.046875 61.559376 62.75Q61.778126 62.4375 61.778126 61.984375Q61.778126 61.5625 61.575 61.234375Q61.371876 60.90625 60.98125 60.796875Q60.60625 60.671875 59.684376 60.671875L57.965626 60.671875L57.965626 63.265625ZM57.965626 67.234375L60.10625 67.234375Q60.653126 67.234375 60.871876 67.1875Q61.278126 67.125 61.528126 66.96875Q61.79375 66.796875 61.965626 66.484375Q62.1375 66.171875 62.1375 65.765625Q62.1375 65.28125 61.8875 64.921875Q61.653126 64.5625 61.215626 64.421875Q60.778126 64.28125 59.95 64.28125L57.965626 64.28125L57.965626 67.234375Z" fill-rule="nonzero"/><path fill="#000000" d="M95.788795 388.05L95.788795 379.45624L99.02317 379.45624Q100.007545 379.45624 100.601295 379.72186Q101.195045 379.9875 101.52317 380.53436Q101.86692 381.0656 101.86692 381.65936Q101.86692 382.20624 101.570045 382.6906Q101.27317 383.175 100.663795 383.47186Q101.445045 383.70624 101.851295 384.26874Q102.27317 384.8156 102.27317 385.5656Q102.27317 386.15936 102.02317 386.6906Q101.77317 387.20624 101.39817 387.4875Q101.02317 387.76874 100.445045 387.90936Q99.882545 388.05 99.070045 388.05L95.788795 388.05ZM96.92942 383.0656L98.788795 383.0656Q99.538795 383.0656 99.86692 382.97186Q100.30442 382.84686 100.52317 382.55Q100.74192 382.2375 100.74192 381.78436Q100.74192 381.3625 100.538795 381.03436Q100.33567 380.70624 99.945045 380.59686Q99.570045 380.47186 98.64817 380.47186L96.92942 380.47186L96.92942 383.0656ZM96.92942 387.03436L99.070045 387.03436Q99.61692 387.03436 99.83567 386.9875Q100.24192 386.925 100.49192 386.76874Q100.757545 386.59686 100.92942 386.28436Q101.101295 385.97186 101.101295 385.5656Q101.101295 385.08124 100.851295 384.72186Q100.61692 384.3625 100.17942 384.22186Q99.74192 384.08124 98.913795 384.08124L96.92942 384.08124L96.92942 387.03436ZM103.695045 388.05L103.695045 381.83124L104.64817 381.83124L104.64817 382.76874Q105.007545 382.1125 105.30442 381.90936Q105.61692 381.6906 105.99192 381.6906Q106.52317 381.6906 107.070045 382.01874L106.71067 383.0031Q106.320045 382.76874 105.945045 382.76874Q105.58567 382.76874 105.30442 382.9875Q105.038795 383.1906 104.92942 383.5656Q104.74192 384.1281 104.74192 384.78436L104.74192 388.05L103.695045 388.05ZM107.320045 384.9406Q107.320045 383.20624 108.27317 382.3781Q109.070045 381.6906 110.226295 381.6906Q111.507545 381.6906 112.320045 382.53436Q113.14817 383.3625 113.14817 384.84686Q113.14817 386.05 112.788795 386.7375Q112.42942 387.425 111.726295 387.8156Q111.038795 388.1906 110.226295 388.1906Q108.92942 388.1906 108.11692 387.3625Q107.320045 386.51874 107.320045 384.9406ZM108.39817 384.9406Q108.39817 386.1281 108.913795 386.72186Q109.445045 387.3156 110.226295 387.3156Q111.02317 387.3156 111.538795 386.72186Q112.05442 386.1281 112.05442 384.90936Q112.05442 383.7531 111.52317 383.15936Q111.007545 382.5656 110.226295 382.5656Q109.445045 382.5656 108.913795 383.15936Q108.39817 383.7375 108.39817 384.9406ZM114.71067 388.05L114.71067 379.45624L115.77317 379.45624L115.77317 384.3625L118.257545 381.83124L119.632545 381.83124L117.24192 384.1281L119.86692 388.05L118.570045 388.05L116.507545 384.8625L115.77317 385.58124L115.77317 388.05L114.71067 388.05ZM124.96067 386.05L126.05442 386.175Q125.80442 387.1281 125.101295 387.65936Q124.39817 388.1906 123.320045 388.1906Q121.96067 388.1906 121.14817 387.34686Q120.351295 386.5031 120.351295 384.9875Q120.351295 383.425 121.163795 382.5656Q121.976295 381.6906 123.257545 381.6906Q124.507545 381.6906 125.288795 382.53436Q126.08567 383.3781 126.08567 384.925Q126.08567 385.01874 126.08567 385.20624L121.445045 385.20624Q121.507545 386.2375 122.02317 386.78436Q122.538795 387.3156 123.320045 387.3156Q123.89817 387.3156 124.30442 387.01874Q124.726295 386.70624 124.96067 386.05ZM121.507545 384.34686L124.976295 384.34686Q124.913795 383.55 124.58567 383.15936Q124.070045 382.55 123.27317 382.55Q122.538795 382.55 122.038795 383.03436Q121.55442 383.51874 121.507545 384.34686ZM127.695045 388.05L127.695045 381.83124L128.64816 381.83124L128.64816 382.76874Q129.00754 382.1125 129.30441 381.90936Q129.61691 381.6906 129.99191 381.6906Q130.52316 381.6906 131.07004 382.01874L130.71066 383.0031Q130.32004 382.76874 129.94504 382.76874Q129.58566 382.76874 129.30441 382.9875Q129.03879 383.1906 128.92941 383.5656Q128.74191 384.1281 128.74191 384.78436L128.74191 388.05L127.695045 388.05ZM134.41379 383.8156Q134.41379 382.28436 134.72629 381.3625Q135.03879 380.425 135.64816 379.925Q136.27316 379.425 137.21066 379.425Q137.89816 379.425 138.41379 379.70624Q138.94504 379.9875 139.28879 380.51874Q139.63254 381.03436 139.82004 381.78436Q140.00754 382.53436 140.00754 383.8156Q140.00754 385.33124 139.69504 386.2531Q139.39816 387.175 138.77316 387.6906Q138.16379 388.1906 137.21066 388.1906Q135.97629 388.1906 135.25754 387.3Q134.41379 386.2375 134.41379 383.8156ZM135.49191 383.8156Q135.49191 385.925 135.99191 386.6281Q136.49191 387.33124 137.21066 387.33124Q137.94504 387.33124 138.42941 386.6281Q138.92941 385.925 138.92941 383.8156Q138.92941 381.6906 138.42941 381.0031Q137.94504 380.3 137.19504 380.3Q136.47629 380.3 136.03879 380.90936Q135.49191 381.6906 135.49191 383.8156Z" fill-rule="nonzero"/><path fill="#000000" d="M166.84627 388.05L166.84627 379.45624L170.08064 379.45624Q171.06502 379.45624 171.65877 379.72186Q172.25252 379.9875 172.58064 380.53436Q172.9244 381.0656 172.9244 381.65936Q172.9244 382.20624 172.62752 382.6906Q172.33064 383.175 171.72127 383.47186Q172.50252 383.70624 172.90877 384.26874Q173.33064 384.8156 173.33064 385.5656Q173.33064 386.15936 173.08064 386.6906Q172.83064 387.20624 172.45564 387.4875Q172.08064 387.76874 171.50252 387.90936Q170.94002 388.05 170.12752 388.05L166.84627 388.05ZM167.9869 383.0656L169.84627 383.0656Q170.59627 383.0656 170.9244 382.97186Q171.3619 382.84686 171.58064 382.55Q171.7994 382.2375 171.7994 381.78436Q171.7994 381.3625 171.59627 381.03436Q171.39314 380.70624 171.00252 380.59686Q170.62752 380.47186 169.70564 380.47186L167.9869 380.47186L167.9869 383.0656ZM167.9869 387.03436L170.12752 387.03436Q170.6744 387.03436 170.89314 386.9875Q171.2994 386.925 171.5494 386.76874Q171.81502 386.59686 171.9869 386.28436Q172.15877 385.97186 172.15877 385.5656Q172.15877 385.08124 171.90877 384.72186Q171.6744 384.3625 171.2369 384.22186Q170.7994 384.08124 169.97127 384.08124L167.9869 384.08124L167.9869 387.03436ZM174.75252 388.05L174.75252 381.83124L175.70564 381.83124L175.70564 382.76874Q176.06502 382.1125 176.3619 381.90936Q176.6744 381.6906 177.0494 381.6906Q177.58064 381.6906 178.12752 382.01874L177.76814 383.0031Q177.37752 382.76874 177.00252 382.76874Q176.64314 382.76874 176.3619 382.9875Q176.09627 383.1906 175.9869 383.5656Q175.7994 384.1281 175.7994 384.78436L175.7994 388.05L174.75252 388.05ZM178.37752 384.9406Q178.37752 383.20624 179.33064 382.3781Q180.12752 381.6906 181.28377 381.6906Q182.56502 381.6906 183.37752 382.53436Q184.20564 383.3625 184.20564 384.84686Q184.20564 386.05 183.84627 386.7375Q183.4869 387.425 182.78377 387.8156Q182.09627 388.1906 181.28377 388.1906Q179.9869 388.1906 179.1744 387.3625Q178.37752 386.51874 178.37752 384.9406ZM179.45564 384.9406Q179.45564 386.1281 179.97127 386.72186Q180.50252 387.3156 181.28377 387.3156Q182.08064 387.3156 182.59627 386.72186Q183.1119 386.1281 183.1119 384.90936Q183.1119 383.7531 182.58064 383.15936Q182.06502 382.5656 181.28377 382.5656Q180.50252 382.5656 179.97127 383.15936Q179.45564 383.7375 179.45564 384.9406ZM185.76814 388.05L185.76814 379.45624L186.83064 379.45624L186.83064 384.3625L189.31502 381.83124L190.69002 381.83124L188.2994 384.1281L190.9244 388.05L189.62752 388.05L187.56502 384.8625L186.83064 385.58124L186.83064 388.05L185.76814 388.05ZM196.01814 386.05L197.1119 386.175Q196.8619 387.1281 196.15877 387.65936Q195.45564 388.1906 194.37752 388.1906Q193.01814 388.1906 192.20564 387.34686Q191.40877 386.5031 191.40877 384.9875Q191.40877 383.425 192.22127 382.5656Q193.03377 381.6906 194.31502 381.6906Q195.56502 381.6906 196.34627 382.53436Q197.14314 383.3781 197.14314 384.925Q197.14314 385.01874 197.14314 385.20624L192.50252 385.20624Q192.56502 386.2375 193.08064 386.78436Q193.59627 387.3156 194.37752 387.3156Q194.95564 387.3156 195.3619 387.01874Q195.78377 386.70624 196.01814 386.05ZM192.56502 384.34686L196.03377 384.34686Q195.97127 383.55 195.64314 383.15936Q195.12752 382.55 194.33064 382.55Q193.59627 382.55 193.09627 383.03436Q192.6119 383.51874 192.56502 384.34686ZM198.75252 388.05L198.75252 381.83124L199.70564 381.83124L199.70564 382.76874Q200.06502 382.1125 200.3619 381.90936Q200.6744 381.6906 201.0494 381.6906Q201.58064 381.6906 202.12752 382.01874L201.76814 383.0031Q201.37752 382.76874 201.00252 382.76874Q200.64314 382.76874 200.3619 382.9875Q200.09627 383.1906 199.9869 383.5656Q199.7994 384.1281 199.7994 384.78436L199.7994 388.05L198.75252 388.05ZM209.44002 388.05L208.39314 388.05L208.39314 381.33124Q208.00252 381.6906 207.37752 382.0656Q206.76814 382.425 206.28377 382.59686L206.28377 381.58124Q207.15877 381.15936 207.81502 380.58124Q208.4869 379.9875 208.76814 379.425L209.44002 379.425L209.44002 388.05Z" fill-rule="nonzero"/><path fill="#000000" d="M237.90373 388.05L237.90373 379.45624L241.1381 379.45624Q242.12248 379.45624 242.71623 379.72186Q243.30998 379.9875 243.6381 380.53436Q243.98186 381.0656 243.98186 381.65936Q243.98186 382.20624 243.68498 382.6906Q243.3881 383.175 242.77873 383.47186Q243.55998 383.70624 243.96623 384.26874Q244.3881 384.8156 244.3881 385.5656Q244.3881 386.15936 244.1381 386.6906Q243.8881 387.20624 243.5131 387.4875Q243.1381 387.76874 242.55998 387.90936Q241.99748 388.05 241.18498 388.05L237.90373 388.05ZM239.04436 383.0656L240.90373 383.0656Q241.65373 383.0656 241.98186 382.97186Q242.41936 382.84686 242.6381 382.55Q242.85686 382.2375 242.85686 381.78436Q242.85686 381.3625 242.65373 381.03436Q242.4506 380.70624 242.05998 380.59686Q241.68498 380.47186 240.7631 380.47186L239.04436 380.47186L239.04436 383.0656ZM239.04436 387.03436L241.18498 387.03436Q241.73186 387.03436 241.9506 386.9875Q242.35686 386.925 242.60686 386.76874Q242.87248 386.59686 243.04436 386.28436Q243.21623 385.97186 243.21623 385.5656Q243.21623 385.08124 242.96623 384.72186Q242.73186 384.3625 242.29436 384.22186Q241.85686 384.08124 241.02873 384.08124L239.04436 384.08124L239.04436 387.03436ZM245.80998 388.05L245.80998 381.83124L246.7631 381.83124L246.7631 382.76874Q247.12248 382.1125 247.41936 381.90936Q247.73186 381.6906 248.10686 381.6906Q248.6381 381.6906 249.18498 382.01874L248.8256 383.0031Q248.43498 382.76874 248.05998 382.76874Q247.7006 382.76874 247.41936 382.9875Q247.15373 383.1906 247.04436 383.5656Q246.85686 384.1281 246.85686 384.78436L246.85686 388.05L245.80998 388.05ZM249.43498 384.9406Q249.43498 383.20624 250.3881 382.3781Q251.18498 381.6906 252.34123 381.6906Q253.62248 381.6906 254.43498 382.53436Q255.2631 383.3625 255.2631 384.84686Q255.2631 386.05 254.90373 386.7375Q254.54436 387.425 253.84123 387.8156Q253.15373 388.1906 252.34123 388.1906Q251.04436 388.1906 250.23186 387.3625Q249.43498 386.51874 249.43498 384.9406ZM250.5131 384.9406Q250.5131 386.1281 251.02873 386.72186Q251.55998 387.3156 252.34123 387.3156Q253.1381 387.3156 253.65373 386.72186Q254.16936 386.1281 254.16936 384.90936Q254.16936 383.7531 253.6381 383.15936Q253.12248 382.5656 252.34123 382.5656Q251.55998 382.5656 251.02873 383.15936Q250.5131 383.7375 250.5131 384.9406ZM256.82562 388.05L256.82562 379.45624L257.88812 379.45624L257.88812 384.3625L260.3725 381.83124L261.7475 381.83124L259.35687 384.1281L261.98187 388.05L260.685 388.05L258.6225 384.8625L257.88812 385.58124L257.88812 388.05L256.82562 388.05ZM267.07562 386.05L268.16937 386.175Q267.91937 387.1281 267.21625 387.65936Q266.51312 388.1906 265.435 388.1906Q264.07562 388.1906 263.26312 387.34686Q262.46625 386.5031 262.46625 384.9875Q262.46625 383.425 263.27875 382.5656Q264.09125 381.6906 265.3725 381.6906Q266.6225 381.6906 267.40375 382.53436Q268.20062 383.3781 268.20062 384.925Q268.20062 385.01874 268.20062 385.20624L263.56 385.20624Q263.6225 386.2375 264.13812 386.78436Q264.65375 387.3156 265.435 387.3156Q266.01312 387.3156 266.41937 387.01874Q266.84125 386.70624 267.07562 386.05ZM263.6225 384.34686L267.09125 384.34686Q267.02875 383.55 266.70062 383.15936Q266.185 382.55 265.38812 382.55Q264.65375 382.55 264.15375 383.03436Q263.66937 383.51874 263.6225 384.34686ZM269.81 388.05L269.81 381.83124L270.76312 381.83124L270.76312 382.76874Q271.1225 382.1125 271.41937 381.90936Q271.73187 381.6906 272.10687 381.6906Q272.63812 381.6906 273.185 382.01874L272.82562 383.0031Q272.435 382.76874 272.06 382.76874Q271.70062 382.76874 271.41937 382.9875Q271.15375 383.1906 271.04437 383.5656Q270.85687 384.1281 270.85687 384.78436L270.85687 388.05L269.81 388.05ZM282.07562 387.03436L282.07562 388.05L276.38812 388.05Q276.38812 387.675 276.51312 387.3156Q276.73187 386.7375 277.20062 386.175Q277.685 385.6125 278.59125 384.8781Q279.9975 383.72186 280.48187 383.05Q280.98187 382.3781 280.98187 381.78436Q280.98187 381.15936 280.52875 380.7375Q280.07562 380.3 279.35687 380.3Q278.59125 380.3 278.13812 380.7531Q277.685 381.20624 277.66937 382.01874L276.59125 381.90936Q276.70062 380.6906 277.41937 380.0656Q278.15375 379.425 279.38812 379.425Q280.6225 379.425 281.34125 380.1125Q282.06 380.8 282.06 381.8156Q282.06 382.33124 281.84125 382.83124Q281.63812 383.3156 281.13812 383.8781Q280.65375 384.425 279.52875 385.3781Q278.57562 386.175 278.29437 386.47186Q278.02875 386.7531 277.85687 387.03436L282.07562 387.03436Z" fill-rule="nonzero"/><path fill="#000000" d="M308.9612 388.05L308.9612 379.45624L312.1956 379.45624Q313.17996 379.45624 313.7737 379.72186Q314.36746 379.9875 314.6956 380.53436Q315.03934 381.0656 315.03934 381.65936Q315.03934 382.20624 314.74246 382.6906Q314.4456 383.175 313.8362 383.47186Q314.61746 383.70624 315.0237 384.26874Q315.4456 384.8156 315.4456 385.5656Q315.4456 386.15936 315.1956 386.6906Q314.9456 387.20624 314.5706 387.4875Q314.1956 387.76874 313.61746 387.90936Q313.05496 388.05 312.24246 388.05L308.9612 388.05ZM310.10184 383.0656L311.9612 383.0656Q312.7112 383.0656 313.03934 382.97186Q313.47684 382.84686 313.6956 382.55Q313.91434 382.2375 313.91434 381.78436Q313.91434 381.3625 313.7112 381.03436Q313.5081 380.70624 313.11746 380.59686Q312.74246 380.47186 311.8206 380.47186L310.10184 380.47186L310.10184 383.0656ZM310.10184 387.03436L312.24246 387.03436Q312.78934 387.03436 313.0081 386.9875Q313.41434 386.925 313.66434 386.76874Q313.92996 386.59686 314.10184 386.28436Q314.2737 385.97186 314.2737 385.5656Q314.2737 385.08124 314.0237 384.72186Q313.78934 384.3625 313.35184 384.22186Q312.91434 384.08124 312.0862 384.08124L310.10184 384.08124L310.10184 387.03436ZM316.86746 388.05L316.86746 381.83124L317.8206 381.83124L317.8206 382.76874Q318.17996 382.1125 318.47684 381.90936Q318.78934 381.6906 319.16434 381.6906Q319.6956 381.6906 320.24246 382.01874L319.8831 383.0031Q319.49246 382.76874 319.11746 382.76874Q318.7581 382.76874 318.47684 382.9875Q318.2112 383.1906 318.10184 383.5656Q317.91434 384.1281 317.91434 384.78436L317.91434 388.05L316.86746 388.05ZM320.49246 384.9406Q320.49246 383.20624 321.4456 382.3781Q322.24246 381.6906 323.3987 381.6906Q324.67996 381.6906 325.49246 382.53436Q326.3206 383.3625 326.3206 384.84686Q326.3206 386.05 325.9612 386.7375Q325.60184 387.425 324.8987 387.8156Q324.2112 388.1906 323.3987 388.1906Q322.10184 388.1906 321.28934 387.3625Q320.49246 386.51874 320.49246 384.9406ZM321.5706 384.9406Q321.5706 386.1281 322.0862 386.72186Q322.61746 387.3156 323.3987 387.3156Q324.1956 387.3156 324.7112 386.72186Q325.22684 386.1281 325.22684 384.90936Q325.22684 383.7531 324.6956 383.15936Q324.17996 382.5656 323.3987 382.5656Q322.61746 382.5656 322.0862 383.15936Q321.5706 383.7375 321.5706 384.9406ZM327.8831 388.05L327.8831 379.45624L328.9456 379.45624L328.9456 384.3625L331.42996 381.83124L332.80496 381.83124L330.41434 384.1281L333.03934 388.05L331.74246 388.05L329.67996 384.8625L328.9456 385.58124L328.9456 388.05L327.8831 388.05ZM338.1331 386.05L339.22684 386.175Q338.97684 387.1281 338.2737 387.65936Q337.5706 388.1906 336.49246 388.1906Q335.1331 388.1906 334.3206 387.34686Q333.5237 386.5031 333.5237 384.9875Q333.5237 383.425 334.3362 382.5656Q335.1487 381.6906 336.42996 381.6906Q337.67996 381.6906 338.4612 382.53436Q339.2581 383.3781 339.2581 384.925Q339.2581 385.01874 339.2581 385.20624L334.61746 385.20624Q334.67996 386.2375 335.1956 386.78436Q335.7112 387.3156 336.49246 387.3156Q337.0706 387.3156 337.47684 387.01874Q337.8987 386.70624 338.1331 386.05ZM334.67996 384.34686L338.1487 384.34686Q338.0862 383.55 337.7581 383.15936Q337.24246 382.55 336.4456 382.55Q335.7112 382.55 335.2112 383.03436Q334.72684 383.51874 334.67996 384.34686ZM340.86746 388.05L340.86746 381.83124L341.8206 381.83124L341.8206 382.76874Q342.17996 382.1125 342.47684 381.90936Q342.78934 381.6906 343.16434 381.6906Q343.6956 381.6906 344.24246 382.01874L343.8831 383.0031Q343.49246 382.76874 343.11746 382.76874Q342.7581 382.76874 342.47684 382.9875Q342.2112 383.1906 342.10184 383.5656Q341.91434 384.1281 341.91434 384.78436L341.91434 388.05L340.86746 388.05ZM347.5862 385.78436L348.6487 385.64374Q348.8206 386.53436 349.2581 386.9406Q349.6956 387.33124 350.3206 387.33124Q351.0706 387.33124 351.5862 386.8156Q352.10184 386.3 352.10184 385.53436Q352.10184 384.8156 351.61746 384.34686Q351.1487 383.8625 350.41434 383.8625Q350.11746 383.8625 349.66434 383.9875L349.78934 383.05Q349.8987 383.0656 349.9612 383.0656Q350.6331 383.0656 351.16434 382.72186Q351.7112 382.3625 351.7112 381.6281Q351.7112 381.05 351.3206 380.675Q350.92996 380.28436 350.30496 380.28436Q349.6956 380.28436 349.2737 380.675Q348.86746 381.0656 348.7581 381.83124L347.6956 381.64374Q347.8831 380.59686 348.5706 380.01874Q349.2581 379.425 350.2737 379.425Q350.97684 379.425 351.5706 379.7375Q352.16434 380.03436 352.47684 380.55Q352.78934 381.0656 352.78934 381.65936Q352.78934 382.20624 352.49246 382.675Q352.1956 383.1281 351.61746 383.39374Q352.36746 383.5656 352.78934 384.1281Q353.2112 384.675 353.2112 385.51874Q353.2112 386.64374 352.3831 387.425Q351.5706 388.20624 350.3206 388.20624Q349.1956 388.20624 348.4456 387.53436Q347.6956 386.84686 347.5862 385.78436Z" fill-rule="nonzero"/><path fill="#757575" d="M29.403126 34.028126Q30.496876 34.653126 31.35625 35.5125L30.2625 36.60625Q29.325 35.590626 28.3875 35.04375L29.403126 34.028126ZM29.48125 29.8875Q30.496876 30.434376 31.278126 31.29375L30.2625 32.309376Q29.559376 31.528126 28.54375 30.825L29.48125 29.8875ZM25.2625 38.16875L24.871876 39.809376L23.153126 39.496876Q23.85625 37.153126 24.325 33.871876L21.278126 33.871876L21.278126 32.3875L24.559376 32.3875Q25.028126 28.871876 24.95 28.325L35.8875 28.325L35.809376 32.3875L38.621876 32.3875L38.621876 33.871876L35.73125 33.871876L35.575 36.684376L38.465626 36.684376L38.465626 38.16875L35.41875 38.16875L35.340626 39.028126Q35.184376 40.590626 33.7 40.590626L31.04375 40.590626L30.8875 39.10625L33.075 39.10625Q33.7 39.10625 33.778126 38.6375L33.85625 38.16875L25.2625 38.16875ZM21.2 28.95Q24.48125 26.528126 25.73125 22.778126L27.528126 23.246876Q27.840626 23.559376 27.29375 23.6375Q26.98125 24.41875 26.590626 25.04375L37.60625 25.04375L37.60625 26.528126L25.73125 26.528126Q24.325 28.715626 22.45 30.2L21.2 28.95ZM25.575 36.684376L34.0125 36.684376L34.16875 33.871876L25.965626 33.871876L25.575 36.684376ZM26.121876 32.3875L34.246876 32.3875L34.325 29.809376L26.434376 29.809376L26.121876 32.3875ZM56.590626 40.121876L56.590626 39.575L47.60625 39.575L47.60625 40.434376L46.278126 40.434376L46.278126 23.715626L57.91875 23.715626L57.91875 40.121876L56.590626 40.121876ZM44.715626 40.5125L43.153126 40.5125L43.153126 30.903126Q42.528126 31.996876 41.66875 32.934376L40.653126 31.60625Q43.309376 28.48125 44.246876 22.7L45.8875 23.325Q46.2 23.6375 45.653126 23.715626Q45.340626 25.5125 44.48125 28.090626Q45.41875 28.16875 44.715626 28.6375L44.715626 40.5125ZM50.41875 32.23125L50.41875 34.73125L53.934376 34.73125L53.934376 32.23125L50.41875 32.23125ZM47.60625 25.2L47.60625 38.090626L56.590626 38.090626L56.590626 25.2L47.60625 25.2ZM52.840626 27.778126L55.809376 27.778126L55.809376 29.2625L52.840626 29.2625L52.840626 30.98125L55.2625 30.98125L55.2625 36.60625L53.934376 36.60625L53.934376 35.98125L50.41875 35.98125L50.41875 36.91875L49.090626 36.91875L49.090626 30.98125L51.278126 30.98125L51.278126 29.2625L48.3875 29.2625L48.3875 27.778126L51.278126 27.778126L51.278126 25.746876L52.7625 25.746876Q53.3875 25.825 52.840626 26.215626L52.840626 27.778126ZM61.35625 38.246876L62.996876 38.090626L62.996876 28.79375L69.24687 28.79375L69.24687 35.04375L64.325 35.04375L64.325 37.85625L67.37187 37.309376L66.43437 36.29375L67.60625 35.5125Q69.09062 36.91875 70.2625 38.715626L68.85625 39.653126L68.075 38.48125Q65.80937 39.184376 62.528126 39.8875Q62.29375 40.35625 62.059376 40.121876L61.35625 38.246876ZM75.575 37.075Q75.8875 37.075 75.8875 36.7625L75.8875 30.278126L72.45 30.278126L72.45 40.66875L70.8875 40.66875L70.8875 28.79375L77.45 28.79375L77.45 37.465626Q77.45 38.559376 76.35625 38.559376L74.48125 38.559376L74.16875 37.075L75.575 37.075ZM72.45 24.73125L78.62187 24.73125L78.62187 26.215626L74.79375 26.215626L75.73125 27.621876L74.0125 28.090626L73.15312 26.215626L71.90312 26.215626Q71.5125 27.309376 70.34062 28.871876L69.24687 27.7Q70.73125 25.66875 71.43437 22.621876L73.075 23.090626Q73.3875 23.403126 72.84062 23.48125L72.45 24.73125ZM65.73125 26.215626L64.09062 26.215626Q63.075 28.090626 61.98125 29.10625L60.8875 27.934376Q62.7625 26.059376 63.778126 22.85625L65.34062 23.246876Q65.65312 23.559376 65.10625 23.6375L64.71562 24.73125L69.79375 24.73125L69.79375 26.215626L67.1375 26.215626L67.91875 27.778126L66.27812 28.16875L65.73125 26.215626ZM67.91875 32.54375L64.325 32.54375L64.325 33.79375L67.91875 33.79375L67.91875 32.54375ZM67.91875 30.04375L64.325 30.04375L64.325 31.29375L67.91875 31.29375L67.91875 30.04375ZM89.71562 36.60625Q90.49687 38.246876 90.73125 39.496876L89.48125 39.8875Q89.16875 38.403126 88.46562 36.840626L89.71562 36.60625ZM87.60625 36.840626Q87.99687 38.325 88.30937 39.8875L86.98125 40.2Q86.66875 38.48125 86.35625 36.996876L87.60625 36.840626ZM85.41875 37.075Q85.65312 38.871876 85.73125 40.2L84.325 40.2Q84.325 39.028126 84.24687 37.075L85.41875 37.075ZM81.12187 40.278126Q81.825 38.79375 82.21562 36.91875L83.3875 37.153126Q82.99687 39.41875 82.45 40.66875L81.12187 40.278126ZM90.8875 34.575L90.8875 35.825L81.90312 36.371876Q81.5125 37.075 81.35625 36.29375L81.04375 34.8875L85.18437 34.809376L85.18437 33.16875L81.74687 33.16875L81.74687 31.91875L85.18437 31.91875L85.18437 30.590626L83.46562 30.590626L81.74687 30.590626L81.74687 23.246876L90.10625 23.246876L90.10625 30.590626L86.5125 30.590626L86.5125 31.91875L90.18437 31.91875L90.18437 33.16875L86.5125 33.16875L86.5125 34.73125L90.8875 34.575ZM83.93437 28.48125Q83.77812 27.075 83.46562 25.590626L84.325 25.35625Q84.71562 26.91875 84.79375 28.325L83.93437 28.48125ZM88.30937 25.98125Q88.15312 27.153126 87.7625 28.403126L86.825 28.325Q87.21562 26.91875 87.37187 25.434376L88.30937 25.5125Q88.85625 25.66875 88.30937 25.98125ZM93.62187 31.684376L93.62187 23.0125L95.10625 23.0125Q95.73125 23.090626 95.18437 23.48125L95.18437 26.215626L98.93437 26.215626L98.93437 27.7L95.18437 27.7L95.18437 31.684376L98.62187 31.684376L98.62187 40.2L97.05937 40.2L97.05937 39.10625L93.075 39.10625L93.075 40.5125L91.5125 40.5125L91.5125 31.684376L93.62187 31.684376ZM88.77812 29.340626L88.77812 24.496876L86.5125 24.496876L86.5125 29.340626L88.77812 29.340626ZM85.18437 24.496876L83.075 24.496876L83.075 29.340626L85.18437 29.340626L85.18437 24.496876ZM97.05937 37.621876L97.05937 33.16875L93.075 33.16875L93.075 37.621876L97.05937 37.621876ZM117.52812 39.2625Q113.46562 35.590626 112.91875 30.590626L110.65312 30.590626L110.65312 32.153126L112.68437 32.153126L112.68437 33.403126L110.65312 33.403126L110.65312 35.121876L113.77812 35.121876L113.77812 36.371876L110.65312 36.371876L110.65312 39.496876Q110.65312 40.590626 109.6375 40.590626L107.37187 40.590626L107.1375 39.10625L108.77812 39.10625Q109.09062 39.10625 109.09062 38.79375L109.09062 36.371876L105.8875 36.371876L105.8875 35.121876L109.09062 35.121876L109.09062 33.403126L106.90312 33.403126L106.90312 32.153126L109.09062 32.153126L109.09062 30.590626L106.825 30.590626Q106.43437 35.98125 101.825 39.496876L100.8875 37.934376Q104.95 34.809376 105.2625 29.73125L101.43437 29.73125L101.43437 28.246876L106.98125 28.246876L106.98125 29.340626L109.09062 29.340626L109.09062 26.7625L110.73125 26.7625L112.99687 25.2L103.15312 25.2L103.15312 23.715626L114.40312 23.715626L114.95 23.325L115.96562 24.575Q116.43437 25.278126 115.65312 25.121876L110.65312 28.090626L110.65312 29.340626L112.68437 29.340626L112.68437 27.934376L114.0125 27.934376L114.0125 28.871876Q114.0125 29.8875 114.16875 30.434376Q115.575 29.41875 116.98125 27.465626L118.23125 28.715626Q118.62187 29.340626 117.91875 29.184376Q116.27812 30.903126 114.6375 31.996876Q115.34062 34.575 118.77812 37.621876L117.52812 39.2625ZM128.46562 36.91875Q126.825 35.5125 125.80937 33.403126L124.55937 33.403126L124.55937 32.153126L133.30937 32.153126L133.77812 31.684376L135.18437 32.3875Q135.65312 32.778126 134.95 32.85625Q133.15312 35.434376 131.27812 36.996876Q134.6375 38.48125 138.54375 38.79375L138.075 40.590626Q132.7625 39.653126 129.95 37.934376Q126.5125 39.809376 122.21562 40.746876L121.825 39.10625Q126.35625 38.16875 128.46562 36.91875ZM129.79375 28.715626Q129.16875 27.3875 128.23125 26.371876L129.79375 25.590626Q130.73125 26.371876 131.43437 27.85625L129.79375 28.715626ZM125.02812 25.825Q126.12187 26.7625 126.66875 27.934376L125.10625 28.871876Q124.48125 27.7 123.46562 26.7625L125.02812 25.825ZM135.96562 24.73125Q130.73125 25.278126 123.15312 25.5125L122.99687 24.10625Q132.05937 23.79375 135.2625 23.090626L136.5125 24.575Q136.825 25.2 135.96562 24.73125ZM123.46562 33.0125L121.90312 33.0125L121.90312 29.10625L132.60625 29.10625Q133.77812 27.23125 134.71562 25.278126L136.43437 26.215626Q136.66875 26.371876 136.04375 26.60625Q135.18437 27.85625 134.24687 29.10625L138.30937 29.10625L138.30937 33.0125L136.74687 33.0125L136.74687 30.590626L123.46562 30.590626L123.46562 33.0125ZM127.52812 33.403126Q128.23125 34.8875 129.87187 36.1375Q131.43437 34.965626 132.60625 33.403126L127.52812 33.403126ZM152.21562 27.85625Q151.43437 30.04375 149.71562 31.996876L148.54375 30.590626Q151.2 27.934376 151.90312 23.0125L153.54375 23.559376Q154.24687 23.871876 153.46562 24.028126Q153.23125 25.121876 152.84062 26.371876L158.46562 26.371876L158.075 36.996876Q157.99687 40.121876 155.575 40.121876L153.3875 40.121876L153.15312 38.6375L155.18437 38.6375Q156.27812 38.6375 156.35625 37.23125L156.74687 27.85625L152.21562 27.85625ZM153.15312 35.121876Q152.05937 33.559376 150.73125 32.309376L152.05937 30.903126Q153.62187 32.309376 154.55937 33.6375L153.15312 35.121876ZM143.93437 26.371876Q144.40312 24.8875 144.79375 22.934376L146.66875 23.6375Q146.98125 23.95 146.43437 24.028126Q146.2 25.04375 145.575 26.371876L148.46562 26.371876L148.46562 39.2625L146.90312 39.2625L146.90312 38.325L143.46562 38.325L143.46562 39.8875L141.90312 39.8875L141.90312 26.371876L143.93437 26.371876ZM146.90312 27.85625L143.46562 27.85625L143.46562 31.29375L146.90312 31.29375L146.90312 27.85625ZM146.90312 32.778126L143.46562 32.778126L143.46562 36.840626L146.90312 36.840626L146.90312 32.778126ZM168.15312 27.934376Q171.43437 25.5125 172.68437 22.465626L174.325 22.778126Q174.6375 23.090626 174.09062 23.16875L174.09062 23.325Q176.04375 25.66875 179.24687 27.621876L178.23125 28.95Q177.05937 28.325 176.04375 27.3875L176.04375 28.715626L170.8875 28.715626L170.8875 27.54375Q170.02812 28.48125 169.09062 29.10625L168.15312 27.934376ZM165.2625 30.434376L166.5125 30.434376L166.5125 28.871876L165.2625 28.871876L165.2625 30.434376ZM168.30937 36.1375L168.30937 37.3875L165.2625 37.3875L165.2625 40.903126L163.93437 40.903126L163.93437 37.3875L160.96562 37.3875L160.96562 36.1375L163.93437 36.1375L163.93437 34.496876L162.60625 34.496876L161.35625 34.496876L161.35625 27.621876L163.93437 27.621876L163.93437 26.1375L160.96562 26.1375L160.96562 24.8875L163.93437 24.8875L163.93437 22.85625L165.18437 22.85625Q165.80937 22.934376 165.2625 23.325L165.2625 24.8875L167.99687 24.8875L167.99687 26.1375L165.2625 26.1375L165.2625 27.621876L167.84062 27.621876L167.84062 34.496876L165.2625 34.496876L165.2625 36.1375L168.30937 36.1375ZM166.5125 31.684376L165.2625 31.684376L165.2625 33.246876L166.5125 33.246876L166.5125 31.684376ZM163.93437 31.684376L162.68437 31.684376L162.68437 33.246876L163.93437 33.246876L163.93437 31.684376ZM162.68437 28.871876L162.68437 30.434376L163.93437 30.434376L163.93437 28.871876L162.68437 28.871876ZM175.8875 27.23125Q174.48125 26.1375 173.30937 24.496876Q172.29375 26.215626 171.2 27.23125L175.8875 27.23125ZM174.24687 37.934376L174.24687 30.35625L175.49687 30.35625Q176.12187 30.434376 175.575 30.825L175.575 37.934376L174.24687 37.934376ZM178.075 29.41875Q178.7 29.496876 178.15312 29.8875L178.15312 39.340626Q178.15312 40.5125 177.29375 40.5125L175.65312 40.5125L175.41875 39.2625L176.5125 39.2625Q176.825 39.2625 176.825 38.95L176.825 29.41875L178.075 29.41875ZM170.2625 36.684376L170.2625 40.746876L168.93437 40.746876L168.93437 29.809376L173.46562 29.809376L173.46562 39.496876Q173.46562 40.66875 172.60625 40.66875L171.27812 40.66875L171.04375 39.41875L171.825 39.41875Q172.1375 39.41875 172.1375 39.10625L172.1375 36.684376L170.2625 36.684376ZM170.2625 32.7L172.1375 32.7L172.1375 31.059376L170.2625 31.059376L170.2625 32.7ZM170.2625 35.434376L172.1375 35.434376L172.1375 33.95L170.2625 33.95L170.2625 35.434376ZM197.60625 39.965626Q191.59062 36.840626 190.02812 30.121876Q188.3875 37.7 182.1375 40.434376L181.2 38.6375Q187.99687 35.825 188.54375 27.778126L189.55937 27.85625L189.55937 25.35625L185.49687 25.35625L185.49687 23.871876L191.35625 23.871876L191.35625 26.684376Q191.35625 34.184376 198.7 38.0125L197.60625 39.965626ZM204.09062 27.23125Q202.99687 26.059376 201.66875 25.121876L202.84062 23.715626Q204.24687 24.575 205.2625 25.746876L204.09062 27.23125ZM212.60625 24.8875L218.3875 24.8875L218.3875 26.371876L211.825 26.371876L210.02812 29.340626L214.6375 29.10625L212.91875 27.778126L214.16875 26.996876Q216.74687 28.48125 218.54375 30.5125L217.21562 31.60625L215.96562 30.35625L206.66875 31.059376Q206.59062 31.60625 206.27812 31.29375L205.73125 29.496876L208.3875 29.41875L209.79375 26.371876L205.73125 26.371876L205.73125 24.8875L210.80937 24.8875L210.80937 22.778126L212.52812 22.778126Q213.30937 22.934376 212.60625 23.403126L212.60625 24.8875ZM200.96562 39.184376Q202.60625 36.528126 203.85625 33.325L205.2625 34.2625Q204.0125 37.85625 202.68437 40.04375Q202.84062 40.5125 202.45 40.434376L200.96562 39.184376ZM203.93437 31.7625Q202.7625 30.825 201.35625 29.809376L202.37187 28.325Q204.0125 29.340626 205.02812 30.2L203.93437 31.7625ZM212.37187 39.496876L210.80937 39.496876L210.80937 32.075L212.29375 32.075Q212.91875 32.153126 212.37187 32.54375L212.37187 39.496876ZM214.24687 31.91875L215.73125 31.91875Q216.35625 31.996876 215.80937 32.3875L215.80937 38.246876Q215.80937 38.871876 216.35625 38.871876L216.825 38.871876Q217.21562 38.871876 217.29375 38.325L217.45 37.075L219.0125 37.465626Q218.93437 38.48125 218.7 39.41875Q218.46562 40.35625 217.52812 40.35625L215.49687 40.35625Q214.24687 40.35625 214.24687 39.028126L214.24687 31.91875ZM208.85625 35.66875Q208.85625 38.95 205.34062 40.746876L204.24687 39.41875Q207.29375 37.85625 207.29375 35.35625L207.29375 31.996876L208.77812 31.996876Q209.40312 32.075 208.85625 32.465626L208.85625 35.66875ZM224.0125 28.0125L224.0125 23.090626L235.8875 23.090626L235.8875 28.0125L224.0125 28.0125ZM221.35625 30.2L221.35625 28.95L238.62187 28.95L238.62187 30.2L221.35625 30.2ZM230.65312 35.98125L230.65312 36.840626L236.35625 36.840626L236.35625 38.090626L230.65312 38.090626L230.65312 39.028126L238.85625 39.028126L238.85625 40.278126L221.12187 40.278126L221.12187 39.028126L229.325 39.028126L229.325 38.090626L223.54375 38.090626L223.54375 36.840626L229.325 36.840626L229.325 35.98125L226.66875 35.98125L224.0125 35.98125L224.0125 31.1375L235.8875 31.1375L235.8875 35.98125L230.65312 35.98125ZM234.55937 33.090626L234.55937 32.075L230.65312 32.075L230.65312 33.090626L234.55937 33.090626ZM230.65312 35.04375L234.55937 35.04375L234.55937 34.028126L230.65312 34.028126L230.65312 35.04375ZM225.34062 25.04375L234.55937 25.04375L234.55937 24.028126L225.34062 24.028126L225.34062 25.04375ZM225.34062 27.075L234.55937 27.075L234.55937 25.98125L225.34062 25.98125L225.34062 27.075ZM225.34062 33.090626L229.325 33.090626L229.325 32.075L225.34062 32.075L225.34062 33.090626ZM225.34062 35.04375L229.325 35.04375L229.325 34.028126L225.34062 34.028126L225.34062 35.04375Z" fill-rule="nonzero"/></svg>