<svg version="1.1" viewBox="0.0 0.0 904.0 544.0" fill="none" stroke="none" stroke-linecap="square" stroke-miterlimit="10" width="904" height="544" xmlns:xlink="http://www.w3.org/1999/xlink" xmlns="http://www.w3.org/2000/svg"><path fill="#ffffff" d="M0 0L904.0 0L904.0 544.0L0 544.0L0 0Z" fill-rule="nonzero"/><path stroke="#333333" stroke-width="1.0" stroke-linecap="butt" d="M101.5 456.5L876.5 456.5" fill-rule="nonzero"/><path stroke="#cccccc" stroke-width="1.0" stroke-linecap="butt" d="M101.5 330.5L876.5 330.5" fill-rule="nonzero"/><path stroke="#cccccc" stroke-width="1.0" stroke-linecap="butt" d="M101.5 203.5L876.5 203.5" fill-rule="nonzero"/><path stroke="#cccccc" stroke-width="1.0" stroke-linecap="butt" d="M101.5 77.5L876.5 77.5" fill-rule="nonzero"/><path stroke="#e6e6e6" stroke-width="1.0" stroke-linecap="butt" d="M101.5 444.5L876.5 444.5" fill-rule="nonzero"/><path stroke="#e6e6e6" stroke-width="1.0" stroke-linecap="butt" d="M101.5 431.5L876.5 431.5" fill-rule="nonzero"/><path stroke="#e6e6e6" stroke-width="1.0" stroke-linecap="butt" d="M101.5 418.5L876.5 418.5" fill-rule="nonzero"/><path stroke="#e6e6e6" stroke-width="1.0" stroke-linecap="butt" d="M101.5 406.5L876.5 406.5" fill-rule="nonzero"/><path stroke="#e6e6e6" stroke-width="1.0" stroke-linecap="butt" d="M101.5 393.5L876.5 393.5" fill-rule="nonzero"/><path stroke="#e6e6e6" stroke-width="1.0" stroke-linecap="butt" d="M101.5 380.5L876.5 380.5" fill-rule="nonzero"/><path stroke="#e6e6e6" stroke-width="1.0" stroke-linecap="butt" d="M101.5 368.5L876.5 368.5" fill-rule="nonzero"/><path stroke="#e6e6e6" stroke-width="1.0" stroke-linecap="butt" d="M101.5 355.5L876.5 355.5" fill-rule="nonzero"/><path stroke="#e6e6e6" stroke-width="1.0" stroke-linecap="butt" d="M101.5 342.5L876.5 342.5" fill-rule="nonzero"/><path stroke="#e6e6e6" stroke-width="1.0" stroke-linecap="butt" d="M101.5 317.5L876.5 317.5" fill-rule="nonzero"/><path stroke="#e6e6e6" stroke-width="1.0" stroke-linecap="butt" d="M101.5 305.5L876.5 305.5" fill-rule="nonzero"/><path stroke="#e6e6e6" stroke-width="1.0" stroke-linecap="butt" d="M101.5 292.5L876.5 292.5" fill-rule="nonzero"/><path stroke="#e6e6e6" stroke-width="1.0" stroke-linecap="butt" d="M101.5 279.5L876.5 279.5" fill-rule="nonzero"/><path stroke="#e6e6e6" stroke-width="1.0" stroke-linecap="butt" d="M101.5 267.5L876.5 267.5" fill-rule="nonzero"/><path stroke="#e6e6e6" stroke-width="1.0" stroke-linecap="butt" d="M101.5 254.5L876.5 254.5" fill-rule="nonzero"/><path stroke="#e6e6e6" stroke-width="1.0" stroke-linecap="butt" d="M101.5 241.5L876.5 241.5" fill-rule="nonzero"/><path stroke="#e6e6e6" stroke-width="1.0" stroke-linecap="butt" d="M101.5 229.5L876.5 229.5" fill-rule="nonzero"/><path stroke="#e6e6e6" stroke-width="1.0" stroke-linecap="butt" d="M101.5 216.5L876.5 216.5" fill-rule="nonzero"/><path stroke="#e6e6e6" stroke-width="1.0" stroke-linecap="butt" d="M101.5 191.5L876.5 191.5" fill-rule="nonzero"/><path stroke="#e6e6e6" stroke-width="1.0" stroke-linecap="butt" d="M101.5 178.5L876.5 178.5" fill-rule="nonzero"/><path stroke="#e6e6e6" stroke-width="1.0" stroke-linecap="butt" d="M101.5 165.5L876.5 165.5" fill-rule="nonzero"/><path stroke="#e6e6e6" stroke-width="1.0" stroke-linecap="butt" d="M101.5 153.5L876.5 153.5" fill-rule="nonzero"/><path stroke="#e6e6e6" stroke-width="1.0" stroke-linecap="butt" d="M101.5 140.5L876.5 140.5" fill-rule="nonzero"/><path stroke="#e6e6e6" stroke-width="1.0" stroke-linecap="butt" d="M101.5 127.5L876.5 127.5" fill-rule="nonzero"/><path stroke="#e6e6e6" stroke-width="1.0" stroke-linecap="butt" d="M101.5 115.5L876.5 115.5" fill-rule="nonzero"/><path stroke="#e6e6e6" stroke-width="1.0" stroke-linecap="butt" d="M101.5 102.5L876.5 102.5" fill-rule="nonzero"/><path stroke="#e6e6e6" stroke-width="1.0" stroke-linecap="butt" d="M101.5 89.5L876.5 89.5" fill-rule="nonzero"/><path stroke="#000000" stroke-width="1.0" stroke-linecap="butt" d="M101.5 456.5L101.5 77.5" fill-rule="nonzero"/><clipPath id="id_0"><path d="M101.2 77.333336L876.8 77.333336L876.8 456.8L101.2 456.8L101.2 77.333336Z" clip-rule="nonzero"/></clipPath><path stroke="#000000" stroke-width="2.0" stroke-linecap="butt" stroke-opacity="0.0" clip-path="url(#id_0)" d="M207.0 457.0L138.0 457.0L138.0 135.0C138.0 133.89543 138.89543 133.0 140.0 133.0L205.0 133.0C206.10457 133.0 207.0 133.89543 207.0 135.0Z" fill-rule="nonzero"/><path fill="#5891ad" clip-path="url(#id_0)" d="M207.0 457.0L138.0 457.0L138.0 135.0C138.0 133.89543 138.89543 133.0 140.0 133.0L205.0 133.0C206.10457 133.0 207.0 133.89543 207.0 135.0Z" fill-rule="nonzero"/><path stroke="#000000" stroke-width="2.0" stroke-linecap="butt" stroke-opacity="0.0" clip-path="url(#id_0)" d="M313.0 457.0L244.0 457.0L244.0 225.0C244.0 223.89543 244.89543 223.0 246.0 223.0L311.0 223.0C312.10458 223.0 313.0 223.89543 313.0 225.0Z" fill-rule="nonzero"/><path fill="#5891ad" clip-path="url(#id_0)" d="M313.0 457.0L244.0 457.0L244.0 225.0C244.0 223.89543 244.89543 223.0 246.0 223.0L311.0 223.0C312.10458 223.0 313.0 223.89543 313.0 225.0Z" fill-rule="nonzero"/><path stroke="#000000" stroke-width="2.0" stroke-linecap="butt" stroke-opacity="0.0" clip-path="url(#id_0)" d="M418.0 457.0L349.0 457.0L349.0 298.0C349.0 296.89542 349.89542 296.0 351.0 296.0L416.0 296.0C417.10458 296.0 418.0 296.89542 418.0 298.0Z" fill-rule="nonzero"/><path fill="#5891ad" clip-path="url(#id_0)" d="M418.0 457.0L349.0 457.0L349.0 298.0C349.0 296.89542 349.89542 296.0 351.0 296.0L416.0 296.0C417.10458 296.0 418.0 296.89542 418.0 298.0Z" fill-rule="nonzero"/><path stroke="#000000" stroke-width="2.0" stroke-linecap="butt" stroke-opacity="0.0" clip-path="url(#id_0)" d="M524.0 457.0L455.0 457.0L455.0 377.0C455.0 375.89542 455.89542 375.0 457.0 375.0L522.0 375.0C523.10455 375.0 524.0 375.89542 524.0 377.0Z" fill-rule="nonzero"/><path fill="#5891ad" clip-path="url(#id_0)" d="M524.0 457.0L455.0 457.0L455.0 377.0C455.0 375.89542 455.89542 375.0 457.0 375.0L522.0 375.0C523.10455 375.0 524.0 375.89542 524.0 377.0Z" fill-rule="nonzero"/><path stroke="#000000" stroke-width="2.0" stroke-linecap="butt" stroke-opacity="0.0" clip-path="url(#id_0)" d="M630.0 457.0L561.0 457.0L561.0 407.0C561.0 405.89542 561.89545 405.0 563.0 405.0L628.0 405.0C629.10455 405.0 630.0 405.89542 630.0 407.0Z" fill-rule="nonzero"/><path fill="#5891ad" clip-path="url(#id_0)" d="M630.0 457.0L561.0 457.0L561.0 407.0C561.0 405.89542 561.89545 405.0 563.0 405.0L628.0 405.0C629.10455 405.0 630.0 405.89542 630.0 407.0Z" fill-rule="nonzero"/><path stroke="#000000" stroke-width="2.0" stroke-linecap="butt" stroke-opacity="0.0" clip-path="url(#id_0)" d="M735.0 457.0L666.0 457.0L666.0 434.0C666.0 432.89542 666.89545 432.0 668.0 432.0L733.0 432.0C734.10455 432.0 735.0 432.89542 735.0 434.0Z" fill-rule="nonzero"/><path fill="#5891ad" clip-path="url(#id_0)" d="M735.0 457.0L666.0 457.0L666.0 434.0C666.0 432.89542 666.89545 432.0 668.0 432.0L733.0 432.0C734.10455 432.0 735.0 432.89542 735.0 434.0Z" fill-rule="nonzero"/><path stroke="#000000" stroke-width="2.0" stroke-linecap="butt" stroke-opacity="0.0" clip-path="url(#id_0)" d="M841.0 457.0L772.0 457.0L772.0 447.0C772.0 445.89542 772.89545 445.0 774.0 445.0L839.0 445.0C840.10455 445.0 841.0 445.89542 841.0 447.0Z" fill-rule="nonzero"/><path fill="#5891ad" clip-path="url(#id_0)" d="M841.0 457.0L772.0 457.0L772.0 447.0C772.0 445.89542 772.89545 445.0 774.0 445.0L839.0 445.0C840.10455 445.0 841.0 445.89542 841.0 447.0Z" fill-rule="nonzero"/><path stroke="#000000" stroke-width="1.0" stroke-linecap="butt" d="M98.5 444.5L104.5 444.5" fill-rule="nonzero"/><path stroke="#000000" stroke-width="1.0" stroke-linecap="butt" d="M98.5 431.5L104.5 431.5" fill-rule="nonzero"/><path stroke="#000000" stroke-width="1.0" stroke-linecap="butt" d="M98.5 418.5L104.5 418.5" fill-rule="nonzero"/><path stroke="#000000" stroke-width="1.0" stroke-linecap="butt" d="M98.5 406.5L104.5 406.5" fill-rule="nonzero"/><path stroke="#000000" stroke-width="1.0" stroke-linecap="butt" d="M98.5 393.5L104.5 393.5" fill-rule="nonzero"/><path stroke="#000000" stroke-width="1.0" stroke-linecap="butt" d="M98.5 380.5L104.5 380.5" fill-rule="nonzero"/><path stroke="#000000" stroke-width="1.0" stroke-linecap="butt" d="M98.5 368.5L104.5 368.5" fill-rule="nonzero"/><path stroke="#000000" stroke-width="1.0" stroke-linecap="butt" d="M98.5 355.5L104.5 355.5" fill-rule="nonzero"/><path stroke="#000000" stroke-width="1.0" stroke-linecap="butt" d="M98.5 342.5L104.5 342.5" fill-rule="nonzero"/><path stroke="#000000" stroke-width="1.0" stroke-linecap="butt" d="M98.5 317.5L104.5 317.5" fill-rule="nonzero"/><path stroke="#000000" stroke-width="1.0" stroke-linecap="butt" d="M98.5 305.5L104.5 305.5" fill-rule="nonzero"/><path stroke="#000000" stroke-width="1.0" stroke-linecap="butt" d="M98.5 292.5L104.5 292.5" fill-rule="nonzero"/><path stroke="#000000" stroke-width="1.0" stroke-linecap="butt" d="M98.5 279.5L104.5 279.5" fill-rule="nonzero"/><path stroke="#000000" stroke-width="1.0" stroke-linecap="butt" d="M98.5 267.5L104.5 267.5" fill-rule="nonzero"/><path stroke="#000000" stroke-width="1.0" stroke-linecap="butt" d="M98.5 254.5L104.5 254.5" fill-rule="nonzero"/><path stroke="#000000" stroke-width="1.0" stroke-linecap="butt" d="M98.5 241.5L104.5 241.5" fill-rule="nonzero"/><path stroke="#000000" stroke-width="1.0" stroke-linecap="butt" d="M98.5 229.5L104.5 229.5" fill-rule="nonzero"/><path stroke="#000000" stroke-width="1.0" stroke-linecap="butt" d="M98.5 216.5L104.5 216.5" fill-rule="nonzero"/><path stroke="#000000" stroke-width="1.0" stroke-linecap="butt" d="M98.5 191.5L104.5 191.5" fill-rule="nonzero"/><path stroke="#000000" stroke-width="1.0" stroke-linecap="butt" d="M98.5 178.5L104.5 178.5" fill-rule="nonzero"/><path stroke="#000000" stroke-width="1.0" stroke-linecap="butt" d="M98.5 165.5L104.5 165.5" fill-rule="nonzero"/><path stroke="#000000" stroke-width="1.0" stroke-linecap="butt" d="M98.5 153.5L104.5 153.5" fill-rule="nonzero"/><path stroke="#000000" stroke-width="1.0" stroke-linecap="butt" d="M98.5 140.5L104.5 140.5" fill-rule="nonzero"/><path stroke="#000000" stroke-width="1.0" stroke-linecap="butt" d="M98.5 127.5L104.5 127.5" fill-rule="nonzero"/><path stroke="#000000" stroke-width="1.0" stroke-linecap="butt" d="M98.5 115.5L104.5 115.5" fill-rule="nonzero"/><path stroke="#000000" stroke-width="1.0" stroke-linecap="butt" d="M98.5 102.5L104.5 102.5" fill-rule="nonzero"/><path stroke="#000000" stroke-width="1.0" stroke-linecap="butt" d="M98.5 89.5L104.5 89.5" fill-rule="nonzero"/><path fill="#000000" d="M420.07812 513.8L420.07812 503.78436L423.85938 503.78436Q424.85938 503.78436 425.39062 503.8781Q426.125 504.0031 426.625 504.34686Q427.125 504.6906 427.42188 505.3156Q427.73438 505.925 427.73438 506.675Q427.73438 507.95624 426.92188 508.84686Q426.10938 509.72186 423.98438 509.72186L421.40625 509.72186L421.40625 513.8L420.07812 513.8ZM421.40625 508.55L424.0 508.55Q425.28125 508.55 425.8125 508.0656Q426.35938 507.58124 426.35938 506.72186Q426.35938 506.08124 426.04688 505.64374Q425.73438 505.1906 425.20312 505.05Q424.875 504.95624 423.96875 504.95624L421.40625 504.95624L421.40625 508.55ZM433.65625 512.90936Q432.98438 513.4875 432.34375 513.7375Q431.71875 513.97186 430.98438 513.97186Q429.79688 513.97186 429.14062 513.39374Q428.5 512.8 428.5 511.8781Q428.5 511.34686 428.73438 510.90936Q428.98438 510.47186 429.375 510.20624Q429.78125 509.9406 430.26562 509.8Q430.625 509.70624 431.35938 509.6125Q432.85938 509.4406 433.5625 509.1906Q433.5625 508.9406 433.5625 508.8781Q433.5625 508.1125 433.21875 507.8156Q432.75 507.39374 431.8125 507.39374Q430.95312 507.39374 430.53125 507.70624Q430.125 508.0031 429.92188 508.76874L428.71875 508.6125Q428.875 507.83124 429.25 507.3625Q429.64062 506.89374 430.34375 506.64374Q431.0625 506.3781 432.0 506.3781Q432.92188 506.3781 433.5 506.59686Q434.07812 506.8156 434.34375 507.14374Q434.625 507.47186 434.73438 507.9875Q434.79688 508.3 434.79688 509.1125L434.79688 510.7531Q434.79688 512.47186 434.875 512.925Q434.95312 513.3781 435.1875 513.8L433.90625 513.8Q433.71875 513.40936 433.65625 512.90936ZM433.5625 510.15936Q432.89062 510.425 431.54688 510.6281Q430.79688 510.7375 430.46875 510.8781Q430.15625 511.0031 429.98438 511.26874Q429.8125 511.53436 429.8125 511.84686Q429.8125 512.34686 430.1875 512.675Q430.5625 513.0031 431.28125 513.0031Q432.0 513.0031 432.54688 512.6906Q433.09375 512.3781 433.35938 511.83124Q433.5625 511.425 433.5625 510.6125L433.5625 510.15936ZM436.90625 513.8L436.90625 506.53436L438.01562 506.53436L438.01562 507.64374Q438.4375 506.8625 438.79688 506.6281Q439.15625 506.3781 439.59375 506.3781Q440.21875 506.3781 440.85938 506.76874L440.4375 507.90936Q439.98438 507.64374 439.53125 507.64374Q439.125 507.64374 438.79688 507.89374Q438.48438 508.1281 438.34375 508.5656Q438.14062 509.22186 438.14062 510.0031L438.14062 513.8L436.90625 513.8ZM444.60938 512.70624L444.78125 513.78436Q444.26562 513.89374 443.85938 513.89374Q443.1875 513.89374 442.8125 513.6906Q442.45312 513.47186 442.29688 513.1281Q442.15625 512.78436 442.15625 511.675L442.15625 507.5031L441.25 507.5031L441.25 506.53436L442.15625 506.53436L442.15625 504.7375L443.375 504.0031L443.375 506.53436L444.60938 506.53436L444.60938 507.5031L443.375 507.5031L443.375 511.7375Q443.375 512.26874 443.4375 512.425Q443.5 512.5656 443.64062 512.65936Q443.79688 512.7531 444.0625 512.7531Q444.28125 512.7531 444.60938 512.70624ZM445.9375 505.1906L445.9375 503.78436L447.15625 503.78436L447.15625 505.1906L445.9375 505.1906ZM445.9375 513.8L445.9375 506.53436L447.15625 506.53436L447.15625 513.8L445.9375 513.8ZM451.60938 512.70624L451.78125 513.78436Q451.26562 513.89374 450.85938 513.89374Q450.1875 513.89374 449.8125 513.6906Q449.45312 513.47186 449.29688 513.1281Q449.15625 512.78436 449.15625 511.675L449.15625 507.5031L448.25 507.5031L448.25 506.53436L449.15625 506.53436L449.15625 504.7375L450.375 504.0031L450.375 506.53436L451.60938 506.53436L451.60938 507.5031L450.375 507.5031L450.375 511.7375Q450.375 512.26874 450.4375 512.425Q450.5 512.5656 450.64062 512.65936Q450.79688 512.7531 451.0625 512.7531Q451.28125 512.7531 451.60938 512.70624ZM452.9375 505.1906L452.9375 503.78436L454.15625 503.78436L454.15625 505.1906L452.9375 505.1906ZM452.9375 513.8L452.9375 506.53436L454.15625 506.53436L454.15625 513.8L452.9375 513.8ZM455.46875 510.175Q455.46875 508.15936 456.59375 507.175Q457.51562 506.3781 458.875 506.3781Q460.35938 506.3781 461.3125 507.3625Q462.26562 508.33124 462.26562 510.0656Q462.26562 511.47186 461.84375 512.28436Q461.42188 513.08124 460.60938 513.53436Q459.8125 513.97186 458.875 513.97186Q457.34375 513.97186 456.40625 512.9875Q455.46875 512.0031 455.46875 510.175ZM456.73438 510.175Q456.73438 511.5656 457.34375 512.26874Q457.95312 512.95624 458.875 512.95624Q459.78125 512.95624 460.39062 512.2531Q461.0 511.55 461.0 510.1281Q461.0 508.78436 460.39062 508.09686Q459.78125 507.39374 458.875 507.39374Q457.95312 507.39374 457.34375 508.08124Q456.73438 508.76874 456.73438 510.175ZM463.92188 513.8L463.92188 506.53436L465.03125 506.53436L465.03125 507.5656Q465.82812 506.3781 467.34375 506.3781Q468.0 506.3781 468.54688 506.6125Q469.09375 506.84686 469.35938 507.2375Q469.64062 507.6125 469.75 508.14374Q469.82812 508.4875 469.82812 509.33124L469.82812 513.8L468.59375 513.8L468.59375 509.3781Q468.59375 508.6281 468.45312 508.26874Q468.3125 507.89374 467.9375 507.675Q467.57812 507.4406 467.07812 507.4406Q466.29688 507.4406 465.71875 507.9406Q465.15625 508.4406 465.15625 509.83124L465.15625 513.8L463.92188 513.8Z" fill-rule="nonzero"/><path fill="#000000" d="M480.75 506.08124Q483.04688 504.39374 483.92188 502.2531L485.0625 502.47186Q485.28125 502.6906 484.90625 502.7531L484.90625 502.8625Q486.26562 504.5031 488.51562 505.8625L487.79688 506.8Q486.98438 506.3625 486.26562 505.70624L486.26562 506.6281L482.65625 506.6281L482.65625 505.8156Q482.0625 506.47186 481.40625 506.90936L480.75 506.08124ZM478.71875 507.83124L479.59375 507.83124L479.59375 506.7375L478.71875 506.7375L478.71875 507.83124ZM480.85938 511.83124L480.85938 512.70624L478.71875 512.70624L478.71875 515.175L477.79688 515.175L477.79688 512.70624L475.71875 512.70624L475.71875 511.83124L477.79688 511.83124L477.79688 510.675L476.85938 510.675L475.98438 510.675L475.98438 505.8625L477.79688 505.8625L477.79688 504.83124L475.71875 504.83124L475.71875 503.95624L477.79688 503.95624L477.79688 502.53436L478.67188 502.53436Q479.10938 502.58124 478.71875 502.8625L478.71875 503.95624L480.64062 503.95624L480.64062 504.83124L478.71875 504.83124L478.71875 505.8625L480.53125 505.8625L480.53125 510.675L478.71875 510.675L478.71875 511.83124L480.85938 511.83124ZM479.59375 508.70624L478.71875 508.70624L478.71875 509.8L479.59375 509.8L479.59375 508.70624ZM477.79688 508.70624L476.92188 508.70624L476.92188 509.8L477.79688 509.8L477.79688 508.70624ZM476.92188 506.7375L476.92188 507.83124L477.79688 507.83124L477.79688 506.7375L476.92188 506.7375ZM486.15625 505.59686Q485.17188 504.83124 484.35938 503.675Q483.64062 504.8781 482.875 505.59686L486.15625 505.59686ZM485.01562 513.08124L485.01562 507.78436L485.89062 507.78436Q486.32812 507.83124 485.9375 508.1125L485.9375 513.08124L485.01562 513.08124ZM487.6875 507.1281Q488.125 507.175 487.75 507.45624L487.75 514.08124Q487.75 514.89374 487.14062 514.89374L486.0 514.89374L485.82812 514.01874L486.59375 514.01874Q486.8125 514.01874 486.8125 513.8L486.8125 507.1281L487.6875 507.1281ZM482.21875 512.20624L482.21875 515.0656L481.29688 515.0656L481.29688 507.39374L484.46875 507.39374L484.46875 514.1906Q484.46875 515.0031 483.85938 515.0031L482.9375 515.0031L482.76562 514.1281L483.3125 514.1281Q483.53125 514.1281 483.53125 513.90936L483.53125 512.20624L482.21875 512.20624ZM482.21875 509.425L483.53125 509.425L483.53125 508.26874L482.21875 508.26874L482.21875 509.425ZM482.21875 511.33124L483.53125 511.33124L483.53125 510.3L482.21875 510.3L482.21875 511.33124ZM501.35938 514.51874Q497.15625 512.3156 496.0625 507.6125Q494.90625 512.925 490.53125 514.84686L489.875 513.58124Q494.64062 511.6125 495.01562 505.97186L495.73438 506.03436L495.73438 504.28436L492.89062 504.28436L492.89062 503.2375L496.98438 503.2375L496.98438 505.20624Q496.98438 510.45624 502.125 513.14374L501.35938 514.51874ZM505.90625 505.59686Q505.14062 504.76874 504.20312 504.1125L505.03125 503.1281Q506.01562 503.7375 506.71875 504.55L505.90625 505.59686ZM511.85938 503.95624L515.90625 503.95624L515.90625 504.9875L511.3125 504.9875L510.0625 507.0656L513.28125 506.90936L512.0781 505.97186L512.9531 505.425Q514.7656 506.47186 516.0156 507.89374L515.09375 508.65936L514.21875 507.78436L507.70312 508.26874Q507.65625 508.65936 507.4375 508.4406L507.04688 507.175L508.90625 507.1281L509.89062 504.9875L507.04688 504.9875L507.04688 503.95624L510.60938 503.95624L510.60938 502.47186L511.8125 502.47186Q512.3594 502.58124 511.85938 502.90936L511.85938 503.95624ZM503.71875 513.97186Q504.85938 512.09686 505.73438 509.8625L506.71875 510.51874Q505.84375 513.03436 504.92188 514.5656Q505.03125 514.89374 504.75 514.84686L503.71875 513.97186ZM505.79688 508.76874Q504.96875 508.1125 503.98438 507.39374L504.70312 506.3625Q505.84375 507.0656 506.5625 507.675L505.79688 508.76874ZM511.70312 514.1906L510.60938 514.1906L510.60938 508.9875L511.64062 508.9875Q512.0781 509.03436 511.70312 509.3156L511.70312 514.1906ZM513.0156 508.8781L514.0469 508.8781Q514.4844 508.925 514.1094 509.20624L514.1094 513.3Q514.1094 513.7375 514.4844 513.7375L514.8125 513.7375Q515.09375 513.7375 515.1406 513.3625L515.25 512.4875L516.34375 512.7531Q516.2969 513.47186 516.125 514.1281Q515.96875 514.78436 515.3125 514.78436L513.8906 514.78436Q513.0156 514.78436 513.0156 513.8625L513.0156 508.8781ZM509.23438 511.5031Q509.23438 513.8 506.78125 515.0656L506.01562 514.1281Q508.14062 513.03436 508.14062 511.28436L508.14062 508.925L509.1875 508.925Q509.625 508.9875 509.23438 509.2531L509.23438 511.5031ZM519.84375 506.14374L519.84375 502.6906L528.15625 502.6906L528.15625 506.14374L519.84375 506.14374ZM517.9844 507.675L517.9844 506.8L530.0781 506.8L530.0781 507.675L517.9844 507.675ZM524.5 511.72186L524.5 512.3156L528.4844 512.3156L528.4844 513.1906L524.5 513.1906L524.5 513.8625L530.2344 513.8625L530.2344 514.7375L517.8281 514.7375L517.8281 513.8625L523.5625 513.8625L523.5625 513.1906L519.5156 513.1906L519.5156 512.3156L523.5625 512.3156L523.5625 511.72186L521.7031 511.72186L519.84375 511.72186L519.84375 508.33124L528.15625 508.33124L528.15625 511.72186L524.5 511.72186ZM527.2344 509.6906L527.2344 508.9875L524.5 508.9875L524.5 509.6906L527.2344 509.6906ZM524.5 511.0656L527.2344 511.0656L527.2344 510.34686L524.5 510.34686L524.5 511.0656ZM520.78125 504.0656L527.2344 504.0656L527.2344 503.34686L520.78125 503.34686L520.78125 504.0656ZM520.78125 505.4875L527.2344 505.4875L527.2344 504.72186L520.78125 504.72186L520.78125 505.4875ZM520.78125 509.6906L523.5625 509.6906L523.5625 508.9875L520.78125 508.9875L520.78125 509.6906ZM520.78125 511.0656L523.5625 511.0656L523.5625 510.34686L520.78125 510.34686L520.78125 511.0656ZM533.6875 513.2531L544.1875 513.2531L544.1875 514.3L533.6875 514.3L533.6875 514.84686L532.59375 514.84686L532.59375 503.3L544.34375 503.3L544.34375 504.33124L533.6875 504.33124L533.6875 513.2531ZM541.3906 508.1125L536.25 508.1125L536.25 505.15936L541.3906 505.15936L541.3906 508.1125ZM540.2969 507.2375L540.2969 506.03436L537.34375 506.03436L537.34375 507.2375L540.2969 507.2375ZM543.1406 512.3781L542.21875 512.3781L542.21875 511.9406L540.3594 511.9406L540.3594 512.53436L539.4219 512.53436L539.4219 508.8781L543.1406 508.8781L543.1406 512.3781ZM542.21875 511.0656L542.21875 509.7531L540.3594 509.7531L540.3594 511.0656L542.21875 511.0656ZM537.4531 512.425L537.4531 511.9406L535.59375 511.9406L535.59375 512.59686L534.6719 512.59686L534.6719 508.8781L538.3906 508.8781L538.3906 512.425L537.4531 512.425ZM537.4531 511.0656L537.4531 509.7531L535.59375 509.7531L535.59375 511.0656L537.4531 511.0656ZM556.3281 513.8625Q556.5469 513.8625 556.5469 513.6281L556.5469 507.34686L554.5781 507.34686L552.6094 507.34686L552.6094 502.97186L557.6406 502.97186L557.6406 514.01874Q557.6406 514.89374 556.7656 514.89374L555.6719 514.89374L555.5625 513.8625L556.3281 513.8625ZM553.4219 511.22186L550.53125 511.22186L550.53125 512.3156L553.4219 512.3156L553.4219 511.22186ZM553.4219 509.14374L550.53125 509.14374L550.53125 510.34686L553.4219 510.34686L553.4219 509.14374ZM554.5156 508.26874L554.5156 513.6281L553.4219 513.6281L553.4219 513.1906L550.53125 513.1906L550.53125 514.08124L549.4375 514.08124L549.4375 508.26874L554.5156 508.26874ZM556.5469 504.72186L556.5469 503.84686L553.7031 503.84686L553.7031 504.72186L556.5469 504.72186ZM556.5469 505.59686L553.7031 505.59686L553.7031 506.47186L556.5469 506.47186L556.5469 505.59686ZM550.09375 505.59686L547.2969 505.59686L547.2969 506.47186L550.09375 506.47186L550.09375 505.59686ZM550.09375 504.72186L550.09375 503.84686L547.2969 503.84686L547.2969 504.72186L550.09375 504.72186ZM551.1875 507.34686L547.2969 507.34686L547.2969 514.95624L546.2031 514.95624L546.2031 502.97186L551.1875 502.97186L551.1875 507.34686Z" fill-rule="nonzero"/><path fill="#000000" d="M39.653114 285.76978L39.26249 286.5354Q38.340614 285.87915 37.840614 285.55103L37.840614 287.58228L36.965614 287.58228L36.965614 285.17603L36.090614 284.67603L36.090614 286.86353L33.85624 286.86353L33.85624 284.62915L33.13749 284.62915L33.13749 285.7229L33.13749 286.75415L32.434364 286.75415L31.778112 286.75415L31.778112 287.95728L31.121862 287.95728L31.121862 286.75415L29.746862 286.75415L29.746862 284.62915L28.824987 284.62915L28.824987 283.75415Q28.871862 283.31665 29.153112 283.69165L29.746862 283.69165L29.746862 281.56665L31.121862 281.56665L31.121862 280.4104L31.778112 280.4104L31.778112 281.56665L33.13749 281.56665L33.13749 283.69165L33.85624 283.69165L33.85624 281.45728L36.090614 281.45728L36.090614 284.19165L36.26249 283.9104Q36.528114 283.42603 36.590614 284.01978L36.965614 284.23853L36.965614 280.69165L37.840614 280.69165L37.840614 282.00415Q38.60624 282.2229 39.371864 282.81665Q39.590614 282.1604 39.98124 281.45728L40.85624 281.94165Q40.41874 282.55103 40.090614 283.42603Q41.184364 284.95728 41.465614 287.08228L40.63749 287.30103Q40.41874 285.55103 39.653114 284.30103Q39.48124 284.56665 39.215614 285.44165L39.653114 285.76978ZM38.60624 285.06665Q38.778114 284.4104 39.04374 283.64478Q38.44999 283.14478 37.840614 282.87915L37.840614 284.62915L38.60624 285.06665ZM31.778112 282.33228L31.778112 283.69165L32.48124 283.69165L32.48124 282.33228L31.778112 282.33228ZM34.51249 284.62915L34.51249 286.0979L35.434364 286.0979L35.434364 284.62915L34.51249 284.62915ZM34.51249 282.2229L34.51249 283.69165L35.434364 283.69165L35.434364 282.2229L34.51249 282.2229ZM31.121862 284.62915L30.403112 284.62915L30.403112 285.98853L31.121862 285.98853L31.121862 284.62915ZM29.309362 278.2229Q29.371862 277.73853 29.637487 278.2854Q30.731237 278.50415 31.887487 278.83228L31.887487 275.44165L32.91874 275.44165L32.91874 276.31665Q35.54374 276.36353 37.73124 277.45728Q38.88749 276.5354 39.76249 275.05103L40.85624 275.87915Q39.69999 277.30103 38.778114 278.00415Q40.528114 279.31665 41.29374 280.69165L40.48124 281.23853Q39.590614 279.75415 37.94999 278.61353Q36.19999 279.64478 34.621864 279.81665Q35.215614 280.08228 35.871864 280.51978L35.059364 281.23853Q32.653114 279.75415 29.090612 279.1604L29.309362 278.2229ZM31.121862 282.33228L30.403112 282.33228L30.403112 283.69165L31.121862 283.69165L31.121862 282.33228ZM32.48124 284.62915L31.778112 284.62915L31.778112 285.98853L32.48124 285.98853L32.48124 284.62915ZM36.91874 278.11353Q35.10624 277.30103 32.91874 277.23853L32.91874 279.20728Q35.496864 278.98853 36.91874 278.11353ZM32.54374 271.7229L29.090612 271.7229L29.090612 263.4104L32.54374 263.4104L32.54374 271.7229ZM34.07499 273.58228L33.19999 273.58228L33.19999 261.48853L34.07499 261.48853L34.07499 273.58228ZM38.121864 267.06665L38.715614 267.06665L38.715614 263.08228L39.590614 263.08228L39.590614 267.06665L40.26249 267.06665L40.26249 261.33228L41.13749 261.33228L41.13749 273.73853L40.26249 273.73853L40.26249 268.00415L39.590614 268.00415L39.590614 272.05103L38.715614 272.05103L38.715614 268.00415L38.121864 268.00415L38.121864 269.86353L38.121864 271.7229L34.73124 271.7229L34.73124 263.4104L38.121864 263.4104L38.121864 267.06665ZM36.090614 264.33228L35.38749 264.33228L35.38749 267.06665L36.090614 267.06665L36.090614 264.33228ZM37.465614 267.06665L37.465614 264.33228L36.746864 264.33228L36.746864 267.06665L37.465614 267.06665ZM30.465612 270.7854L30.465612 264.33228L29.746862 264.33228L29.746862 270.7854L30.465612 270.7854ZM31.887487 270.7854L31.887487 264.33228L31.121862 264.33228L31.121862 270.7854L31.887487 270.7854ZM36.090614 270.7854L36.090614 268.00415L35.38749 268.00415L35.38749 270.7854L36.090614 270.7854ZM37.465614 270.7854L37.465614 268.00415L36.746864 268.00415L36.746864 270.7854L37.465614 270.7854Z" fill-rule="nonzero"/><path fill="#000000" d="M80.77812 456.8625Q80.77812 455.08124 81.1375 454.0031Q81.5125 452.90936 82.23125 452.33124Q82.95 451.7375 84.04375 451.7375Q84.85625 451.7375 85.46562 452.0656Q86.075 452.39374 86.46562 453.0031Q86.87187 453.6125 87.09062 454.4875Q87.30937 455.3625 87.30937 456.8625Q87.30937 458.6281 86.95 459.70624Q86.59062 460.78436 85.87187 461.3781Q85.15312 461.97186 84.04375 461.97186Q82.60625 461.97186 81.77812 460.925Q80.77812 459.675 80.77812 456.8625ZM82.04375 456.8625Q82.04375 459.33124 82.62187 460.14374Q83.2 460.95624 84.04375 460.95624Q84.90312 460.95624 85.48125 460.14374Q86.05937 459.3156 86.05937 456.8625Q86.05937 454.3781 85.48125 453.5656Q84.90312 452.7531 84.02812 452.7531Q83.18437 452.7531 82.68437 453.47186Q82.04375 454.39374 82.04375 456.8625Z" fill-rule="nonzero"/><path fill="#000000" d="M69.41875 335.3111L68.18437 335.3111L68.18437 327.46735Q67.74687 327.88922 67.0125 328.32672Q66.29375 328.7486 65.73125 328.95172L65.73125 327.76422Q66.7625 327.27985 67.52812 326.59235Q68.30937 325.90485 68.62187 325.2486L69.41875 325.2486L69.41875 335.3111ZM72.77812 330.3736Q72.77812 328.59235 73.1375 327.51422Q73.5125 326.42047 74.23125 325.84235Q74.95 325.2486 76.04375 325.2486Q76.85625 325.2486 77.46562 325.57672Q78.075 325.90485 78.46562 326.51422Q78.87187 327.1236 79.09062 327.9986Q79.30937 328.8736 79.30937 330.3736Q79.30937 332.13922 78.95 333.21735Q78.59062 334.29547 77.87187 334.88922Q77.15312 335.48297 76.04375 335.48297Q74.60625 335.48297 73.77812 334.4361Q72.77812 333.1861 72.77812 330.3736ZM74.04375 330.3736Q74.04375 332.84235 74.62187 333.65485Q75.2 334.46735 76.04375 334.46735Q76.90312 334.46735 77.48125 333.65485Q78.05937 332.82672 78.05937 330.3736Q78.05937 327.88922 77.48125 327.07672Q76.90312 326.26422 76.02812 326.26422Q75.18437 326.26422 74.68437 326.98297Q74.04375 327.90485 74.04375 330.3736ZM80.77812 330.3736Q80.77812 328.59235 81.1375 327.51422Q81.5125 326.42047 82.23125 325.84235Q82.95 325.2486 84.04375 325.2486Q84.85625 325.2486 85.46562 325.57672Q86.075 325.90485 86.46562 326.51422Q86.87187 327.1236 87.09062 327.9986Q87.30937 328.8736 87.30937 330.3736Q87.30937 332.13922 86.95 333.21735Q86.59062 334.29547 85.87187 334.88922Q85.15312 335.48297 84.04375 335.48297Q82.60625 335.48297 81.77812 334.4361Q80.77812 333.1861 80.77812 330.3736ZM82.04375 330.3736Q82.04375 332.84235 82.62187 333.65485Q83.2 334.46735 84.04375 334.46735Q84.90312 334.46735 85.48125 333.65485Q86.05937 332.82672 86.05937 330.3736Q86.05937 327.88922 85.48125 327.07672Q84.90312 326.26422 84.02812 326.26422Q83.18437 326.26422 82.68437 326.98297Q82.04375 327.90485 82.04375 330.3736Z" fill-rule="nonzero"/><path fill="#000000" d="M71.24687 207.63472L71.24687 208.82222L64.62187 208.82222Q64.60625 208.38472 64.7625 207.96284Q65.02812 207.29097 65.575 206.63472Q66.1375 205.97847 67.18437 205.1191Q68.825 203.77534 69.3875 202.9941Q69.96562 202.21284 69.96562 201.50972Q69.96562 200.77534 69.43437 200.27534Q68.91875 199.77534 68.09062 199.77534Q67.2 199.77534 66.65312 200.3066Q66.12187 200.83784 66.12187 201.79097L64.85625 201.65034Q64.98125 200.2441 65.825 199.50972Q66.68437 198.75972 68.10625 198.75972Q69.55937 198.75972 70.3875 199.5566Q71.23125 200.35347 71.23125 201.54097Q71.23125 202.15034 70.98125 202.72847Q70.74687 203.3066 70.16875 203.94722Q69.60625 204.58784 68.27812 205.71284Q67.16875 206.63472 66.85625 206.97847Q66.54375 207.3066 66.34062 207.63472L71.24687 207.63472ZM72.77812 203.88472Q72.77812 202.10347 73.1375 201.02534Q73.5125 199.9316 74.23125 199.35347Q74.95 198.75972 76.04375 198.75972Q76.85625 198.75972 77.46562 199.08784Q78.075 199.41597 78.46562 200.02534Q78.87187 200.63472 79.09062 201.50972Q79.30937 202.38472 79.30937 203.88472Q79.30937 205.65034 78.95 206.72847Q78.59062 207.8066 77.87187 208.40034Q77.15312 208.9941 76.04375 208.9941Q74.60625 208.9941 73.77812 207.94722Q72.77812 206.69722 72.77812 203.88472ZM74.04375 203.88472Q74.04375 206.35347 74.62187 207.16597Q75.2 207.97847 76.04375 207.97847Q76.90312 207.97847 77.48125 207.16597Q78.05937 206.33784 78.05937 203.88472Q78.05937 201.40034 77.48125 200.58784Q76.90312 199.77534 76.02812 199.77534Q75.18437 199.77534 74.68437 200.4941Q74.04375 201.41597 74.04375 203.88472ZM80.77812 203.88472Q80.77812 202.10347 81.1375 201.02534Q81.5125 199.9316 82.23125 199.35347Q82.95 198.75972 84.04375 198.75972Q84.85625 198.75972 85.46562 199.08784Q86.075 199.41597 86.46562 200.02534Q86.87187 200.63472 87.09062 201.50972Q87.30937 202.38472 87.30937 203.88472Q87.30937 205.65034 86.95 206.72847Q86.59062 207.8066 85.87187 208.40034Q85.15312 208.9941 84.04375 208.9941Q82.60625 208.9941 81.77812 207.94722Q80.77812 206.69722 80.77812 203.88472ZM82.04375 203.88472Q82.04375 206.35347 82.62187 207.16597Q83.2 207.97847 84.04375 207.97847Q84.90312 207.97847 85.48125 207.16597Q86.05937 206.33784 86.05937 203.88472Q86.05937 201.40034 85.48125 200.58784Q84.90312 199.77534 84.02812 199.77534Q83.18437 199.77534 82.68437 200.4941Q82.04375 201.41597 82.04375 203.88472Z" fill-rule="nonzero"/><path fill="#000000" d="M64.79375 79.69271L66.0125 79.520836Q66.23125 80.56771 66.73125 81.03646Q67.24687 81.489586 67.98125 81.489586Q68.85625 81.489586 69.45 80.895836Q70.04375 80.28646 70.04375 79.395836Q70.04375 78.552086 69.48125 78.00521Q68.93437 77.458336 68.09062 77.458336Q67.73125 77.458336 67.21562 77.583336L67.35625 76.50521Q67.48125 76.520836 67.54375 76.520836Q68.34062 76.520836 68.96562 76.114586Q69.59062 75.708336 69.59062 74.84896Q69.59062 74.177086 69.1375 73.739586Q68.68437 73.28646 67.95 73.28646Q67.23125 73.28646 66.74687 73.739586Q66.27812 74.177086 66.1375 75.083336L64.91875 74.864586Q65.1375 73.63021 65.93437 72.958336Q66.73125 72.270836 67.91875 72.270836Q68.74687 72.270836 69.43437 72.63021Q70.12187 72.97396 70.48125 73.583336Q70.85625 74.19271 70.85625 74.88021Q70.85625 75.520836 70.5125 76.052086Q70.16875 76.583336 69.48125 76.91146Q70.37187 77.114586 70.85625 77.75521Q71.35625 78.395836 71.35625 79.38021Q71.35625 80.69271 70.3875 81.59896Q69.43437 82.50521 67.98125 82.50521Q66.65312 82.50521 65.77812 81.72396Q64.91875 80.94271 64.79375 79.69271ZM72.77812 77.395836Q72.77812 75.614586 73.1375 74.53646Q73.5125 73.44271 74.23125 72.864586Q74.95 72.270836 76.04375 72.270836Q76.85625 72.270836 77.46562 72.59896Q78.075 72.927086 78.46562 73.53646Q78.87187 74.145836 79.09062 75.020836Q79.30937 75.895836 79.30937 77.395836Q79.30937 79.16146 78.95 80.239586Q78.59062 81.31771 77.87187 81.91146Q77.15312 82.50521 76.04375 82.50521Q74.60625 82.50521 73.77812 81.458336Q72.77812 80.208336 72.77812 77.395836ZM74.04375 77.395836Q74.04375 79.864586 74.62187 80.677086Q75.2 81.489586 76.04375 81.489586Q76.90312 81.489586 77.48125 80.677086Q78.05937 79.84896 78.05937 77.395836Q78.05937 74.91146 77.48125 74.09896Q76.90312 73.28646 76.02812 73.28646Q75.18437 73.28646 74.68437 74.00521Q74.04375 74.927086 74.04375 77.395836ZM80.77812 77.395836Q80.77812 75.614586 81.1375 74.53646Q81.5125 73.44271 82.23125 72.864586Q82.95 72.270836 84.04375 72.270836Q84.85625 72.270836 85.46562 72.59896Q86.075 72.927086 86.46562 73.53646Q86.87187 74.145836 87.09062 75.020836Q87.30937 75.895836 87.30937 77.395836Q87.30937 79.16146 86.95 80.239586Q86.59062 81.31771 85.87187 81.91146Q85.15312 82.50521 84.04375 82.50521Q82.60625 82.50521 81.77812 81.458336Q80.77812 80.208336 80.77812 77.395836ZM82.04375 77.395836Q82.04375 79.864586 82.62187 80.677086Q83.2 81.489586 84.04375 81.489586Q84.90312 81.489586 85.48125 80.677086Q86.05937 79.84896 86.05937 77.395836Q86.05937 74.91146 85.48125 74.09896Q84.90312 73.28646 84.02812 73.28646Q83.18437 73.28646 82.68437 74.00521Q82.04375 74.927086 82.04375 77.395836Z" fill-rule="nonzero"/><path fill="#000000" d="M134.3817 479.58124L134.3817 466.78436L137.10045 466.78436L137.10045 467.8L135.61607 467.8L135.61607 478.5656L137.10045 478.5656L137.10045 479.58124L134.3817 479.58124ZM138.0067 471.8625Q138.0067 470.08124 138.36607 469.0031Q138.74107 467.90936 139.45982 467.33124Q140.17857 466.7375 141.27232 466.7375Q142.08482 466.7375 142.6942 467.0656Q143.30357 467.39374 143.6942 468.0031Q144.10045 468.6125 144.3192 469.4875Q144.53795 470.3625 144.53795 471.8625Q144.53795 473.6281 144.17857 474.70624Q143.8192 475.78436 143.10045 476.3781Q142.3817 476.97186 141.27232 476.97186Q139.83482 476.97186 139.0067 475.925Q138.0067 474.675 138.0067 471.8625ZM139.27232 471.8625Q139.27232 474.33124 139.85045 475.14374Q140.42857 475.95624 141.27232 475.95624Q142.1317 475.95624 142.70982 475.14374Q143.28795 474.3156 143.28795 471.8625Q143.28795 469.3781 142.70982 468.5656Q142.1317 467.7531 141.2567 467.7531Q140.41295 467.7531 139.91295 468.47186Q139.27232 469.39374 139.27232 471.8625ZM146.67857 476.8L146.67857 475.39374L148.0692 475.39374L148.0692 476.8Q148.0692 477.5656 147.78795 478.03436Q147.52232 478.51874 146.92857 478.78436L146.58482 478.2531Q146.97545 478.08124 147.16295 477.7531Q147.35045 477.425 147.36607 476.8L146.67857 476.8ZM150.02232 474.15936L151.24107 473.9875Q151.45982 475.03436 151.95982 475.5031Q152.47545 475.95624 153.20982 475.95624Q154.08482 475.95624 154.67857 475.3625Q155.27232 474.7531 155.27232 473.8625Q155.27232 473.01874 154.70982 472.47186Q154.16295 471.925 153.3192 471.925Q152.95982 471.925 152.4442 472.05L152.58482 470.97186Q152.70982 470.9875 152.77232 470.9875Q153.5692 470.9875 154.1942 470.58124Q154.8192 470.175 154.8192 469.3156Q154.8192 468.64374 154.36607 468.20624Q153.91295 467.7531 153.17857 467.7531Q152.45982 467.7531 151.97545 468.20624Q151.5067 468.64374 151.36607 469.55L150.14732 469.33124Q150.36607 468.09686 151.16295 467.425Q151.95982 466.7375 153.14732 466.7375Q153.97545 466.7375 154.66295 467.09686Q155.35045 467.4406 155.70982 468.05Q156.08482 468.65936 156.08482 469.34686Q156.08482 469.9875 155.74107 470.51874Q155.39732 471.05 154.70982 471.3781Q155.60045 471.58124 156.08482 472.22186Q156.58482 472.8625 156.58482 473.84686Q156.58482 475.15936 155.61607 476.0656Q154.66295 476.97186 153.20982 476.97186Q151.8817 476.97186 151.0067 476.1906Q150.14732 475.40936 150.02232 474.15936ZM158.0067 474.175L159.30357 474.0656Q159.4442 475.0031 159.95982 475.4875Q160.49107 475.95624 161.22545 475.95624Q162.11607 475.95624 162.72545 475.28436Q163.35045 474.6125 163.35045 473.51874Q163.35045 472.45624 162.7567 471.84686Q162.16295 471.2375 161.20982 471.2375Q160.61607 471.2375 160.1317 471.51874Q159.66295 471.78436 159.3817 472.20624L158.22545 472.0656L159.1942 466.90936L164.17857 466.90936L164.17857 468.09686L160.17857 468.09686L159.64732 470.78436Q160.55357 470.15936 161.53795 470.15936Q162.85045 470.15936 163.74107 471.0656Q164.64732 471.97186 164.64732 473.40936Q164.64732 474.76874 163.86607 475.7531Q162.89732 476.97186 161.22545 476.97186Q159.86607 476.97186 158.99107 476.20624Q158.1317 475.4406 158.0067 474.175ZM166.0067 471.8625Q166.0067 470.08124 166.36607 469.0031Q166.74107 467.90936 167.45982 467.33124Q168.17857 466.7375 169.27232 466.7375Q170.08482 466.7375 170.6942 467.0656Q171.30357 467.39374 171.6942 468.0031Q172.10045 468.6125 172.3192 469.4875Q172.53795 470.3625 172.53795 471.8625Q172.53795 473.6281 172.17857 474.70624Q171.8192 475.78436 171.10045 476.3781Q170.3817 476.97186 169.27232 476.97186Q167.83482 476.97186 167.0067 475.925Q166.0067 474.675 166.0067 471.8625ZM167.27232 471.8625Q167.27232 474.33124 167.85045 475.14374Q168.42857 475.95624 169.27232 475.95624Q170.1317 475.95624 170.70982 475.14374Q171.28795 474.3156 171.28795 471.8625Q171.28795 469.3781 170.70982 468.5656Q170.1317 467.7531 169.2567 467.7531Q168.41295 467.7531 167.91295 468.47186Q167.27232 469.39374 167.27232 471.8625ZM175.16295 479.7531L174.27232 479.7531Q176.3192 476.47186 176.3192 473.175Q176.3192 471.89374 176.02232 470.6281Q175.78795 469.59686 175.3817 468.65936Q175.11607 468.05 174.27232 466.6125L175.16295 466.6125Q176.4442 468.3156 177.05357 470.05Q177.58482 471.55 177.58482 473.175Q177.58482 475.01874 176.86607 476.7375Q176.16295 478.45624 175.16295 479.7531ZM183.45982 476.8L183.45982 466.78436L184.78795 466.78436L184.78795 471.7531L189.7567 466.78436L191.55357 466.78436L187.35045 470.83124L191.74107 476.8L189.99107 476.8L186.42857 471.72186L184.78795 473.33124L184.78795 476.8L183.45982 476.8ZM192.45982 476.8L192.45982 466.78436L196.20982 466.78436Q197.36607 466.78436 198.05357 467.09686Q198.7567 467.39374 199.14732 468.01874Q199.53795 468.64374 199.53795 469.34686Q199.53795 469.9875 199.17857 470.55Q198.83482 471.1125 198.1317 471.47186Q199.03795 471.7375 199.52232 472.3781Q200.02232 473.01874 200.02232 473.89374Q200.02232 474.59686 199.72545 475.20624Q199.42857 475.8156 198.99107 476.14374Q198.55357 476.47186 197.8817 476.64374Q197.22545 476.8 196.27232 476.8L192.45982 476.8ZM193.78795 470.9875L195.9442 470.9875Q196.83482 470.9875 197.20982 470.8781Q197.72545 470.72186 197.97545 470.3781Q198.22545 470.01874 198.22545 469.5031Q198.22545 469.0031 197.99107 468.6281Q197.7567 468.2375 197.30357 468.09686Q196.86607 467.95624 195.78795 467.95624L193.78795 467.95624L193.78795 470.9875ZM193.78795 475.6125L196.27232 475.6125Q196.91295 475.6125 197.17857 475.5656Q197.6317 475.4875 197.9442 475.3Q198.2567 475.09686 198.4442 474.7375Q198.64732 474.3781 198.64732 473.89374Q198.64732 473.33124 198.35045 472.925Q198.0692 472.5031 197.55357 472.34686Q197.05357 472.175 196.10045 472.175L193.78795 472.175L193.78795 475.6125ZM200.42857 476.97186L203.33482 466.6125L204.3192 466.6125L201.41295 476.97186L200.42857 476.97186ZM204.86607 474.6281L206.0692 474.4406Q206.17857 475.175 206.64732 475.5656Q207.11607 475.95624 207.95982 475.95624Q208.80357 475.95624 209.20982 475.6125Q209.6317 475.26874 209.6317 474.8Q209.6317 474.3781 209.2567 474.14374Q209.0067 473.97186 208.0067 473.72186Q206.64732 473.3781 206.11607 473.1281Q205.60045 472.8781 205.33482 472.4406Q205.0692 472.0031 205.0692 471.47186Q205.0692 470.9875 205.28795 470.58124Q205.5067 470.15936 205.89732 469.8781Q206.17857 469.675 206.66295 469.53436Q207.16295 469.3781 207.74107 469.3781Q208.58482 469.3781 209.22545 469.6281Q209.8817 469.8625 210.1942 470.28436Q210.5067 470.70624 210.61607 471.40936L209.41295 471.58124Q209.33482 471.01874 208.92857 470.70624Q208.53795 470.39374 207.8192 470.39374Q206.97545 470.39374 206.61607 470.675Q206.2567 470.9406 206.2567 471.33124Q206.2567 471.5656 206.39732 471.7531Q206.55357 471.95624 206.8817 472.08124Q207.05357 472.14374 207.95982 472.39374Q209.27232 472.7531 209.78795 472.97186Q210.30357 473.1906 210.58482 473.6125Q210.8817 474.03436 210.8817 474.65936Q210.8817 475.28436 210.52232 475.83124Q210.17857 476.3625 209.49107 476.675Q208.8192 476.97186 207.95982 476.97186Q206.55357 476.97186 205.80357 476.3781Q205.0692 475.78436 204.86607 474.6281Z" fill-rule="nonzero"/><path fill="#000000" d="M225.9055 479.58124L225.9055 466.78436L228.62425 466.78436L228.62425 467.8L227.13988 467.8L227.13988 478.5656L228.62425 478.5656L228.62425 479.58124L225.9055 479.58124ZM229.54613 474.15936L230.76488 473.9875Q230.98363 475.03436 231.48363 475.5031Q231.99925 475.95624 232.73363 475.95624Q233.60863 475.95624 234.20238 475.3625Q234.79613 474.7531 234.79613 473.8625Q234.79613 473.01874 234.23363 472.47186Q233.68675 471.925 232.843 471.925Q232.48363 471.925 231.968 472.05L232.10863 470.97186Q232.23363 470.9875 232.29613 470.9875Q233.093 470.9875 233.718 470.58124Q234.343 470.175 234.343 469.3156Q234.343 468.64374 233.88988 468.20624Q233.43675 467.7531 232.70238 467.7531Q231.98363 467.7531 231.49925 468.20624Q231.0305 468.64374 230.88988 469.55L229.67113 469.33124Q229.88988 468.09686 230.68675 467.425Q231.48363 466.7375 232.67113 466.7375Q233.49925 466.7375 234.18675 467.09686Q234.87425 467.4406 235.23363 468.05Q235.60863 468.65936 235.60863 469.34686Q235.60863 469.9875 235.26488 470.51874Q234.92113 471.05 234.23363 471.3781Q235.12425 471.58124 235.60863 472.22186Q236.10863 472.8625 236.10863 473.84686Q236.10863 475.15936 235.13988 476.0656Q234.18675 476.97186 232.73363 476.97186Q231.4055 476.97186 230.5305 476.1906Q229.67113 475.40936 229.54613 474.15936ZM237.5305 474.175L238.82738 474.0656Q238.968 475.0031 239.48363 475.4875Q240.01488 475.95624 240.74925 475.95624Q241.63988 475.95624 242.24925 475.28436Q242.87425 474.6125 242.87425 473.51874Q242.87425 472.45624 242.2805 471.84686Q241.68675 471.2375 240.73363 471.2375Q240.13988 471.2375 239.6555 471.51874Q239.18675 471.78436 238.9055 472.20624L237.74925 472.0656L238.718 466.90936L243.70238 466.90936L243.70238 468.09686L239.70238 468.09686L239.17113 470.78436Q240.07738 470.15936 241.06175 470.15936Q242.37425 470.15936 243.26488 471.0656Q244.17113 471.97186 244.17113 473.40936Q244.17113 474.76874 243.38988 475.7531Q242.42113 476.97186 240.74925 476.97186Q239.38988 476.97186 238.51488 476.20624Q237.6555 475.4406 237.5305 474.175ZM245.5305 471.8625Q245.5305 470.08124 245.88988 469.0031Q246.26488 467.90936 246.98363 467.33124Q247.70238 466.7375 248.79613 466.7375Q249.60863 466.7375 250.218 467.0656Q250.82738 467.39374 251.218 468.0031Q251.62425 468.6125 251.843 469.4875Q252.06175 470.3625 252.06175 471.8625Q252.06175 473.6281 251.70238 474.70624Q251.343 475.78436 250.62425 476.3781Q249.9055 476.97186 248.79613 476.97186Q247.35863 476.97186 246.5305 475.925Q245.5305 474.675 245.5305 471.8625ZM246.79613 471.8625Q246.79613 474.33124 247.37425 475.14374Q247.95238 475.95624 248.79613 475.95624Q249.6555 475.95624 250.23363 475.14374Q250.81175 474.3156 250.81175 471.8625Q250.81175 469.3781 250.23363 468.5656Q249.6555 467.7531 248.7805 467.7531Q247.93675 467.7531 247.43675 468.47186Q246.79613 469.39374 246.79613 471.8625ZM254.20238 476.8L254.20238 475.39374L255.593 475.39374L255.593 476.8Q255.593 477.5656 255.31175 478.03436Q255.04613 478.51874 254.45238 478.78436L254.10863 478.2531Q254.49925 478.08124 254.68675 477.7531Q254.87425 477.425 254.88988 476.8L254.20238 476.8ZM266.17114 476.8L264.93677 476.8L264.93677 468.95624Q264.49927 469.3781 263.7649 469.8156Q263.04614 470.2375 262.48364 470.4406L262.48364 469.2531Q263.5149 468.76874 264.28052 468.08124Q265.06177 467.39374 265.37427 466.7375L266.17114 466.7375L266.17114 476.8ZM269.53052 471.8625Q269.53052 470.08124 269.8899 469.0031Q270.2649 467.90936 270.98364 467.33124Q271.7024 466.7375 272.79614 466.7375Q273.60864 466.7375 274.21802 467.0656Q274.8274 467.39374 275.21802 468.0031Q275.62427 468.6125 275.84302 469.4875Q276.06177 470.3625 276.06177 471.8625Q276.06177 473.6281 275.7024 474.70624Q275.34302 475.78436 274.62427 476.3781Q273.90552 476.97186 272.79614 476.97186Q271.35864 476.97186 270.53052 475.925Q269.53052 474.675 269.53052 471.8625ZM270.79614 471.8625Q270.79614 474.33124 271.37427 475.14374Q271.9524 475.95624 272.79614 475.95624Q273.65552 475.95624 274.23364 475.14374Q274.81177 474.3156 274.81177 471.8625Q274.81177 469.3781 274.23364 468.5656Q273.65552 467.7531 272.78052 467.7531Q271.93677 467.7531 271.43677 468.47186Q270.79614 469.39374 270.79614 471.8625ZM277.53052 471.8625Q277.53052 470.08124 277.8899 469.0031Q278.2649 467.90936 278.98364 467.33124Q279.7024 466.7375 280.79614 466.7375Q281.60864 466.7375 282.21802 467.0656Q282.8274 467.39374 283.21802 468.0031Q283.62427 468.6125 283.84302 469.4875Q284.06177 470.3625 284.06177 471.8625Q284.06177 473.6281 283.7024 474.70624Q283.34302 475.78436 282.62427 476.3781Q281.90552 476.97186 280.79614 476.97186Q279.35864 476.97186 278.53052 475.925Q277.53052 474.675 277.53052 471.8625ZM278.79614 471.8625Q278.79614 474.33124 279.37427 475.14374Q279.9524 475.95624 280.79614 475.95624Q281.65552 475.95624 282.23364 475.14374Q282.81177 474.3156 282.81177 471.8625Q282.81177 469.3781 282.23364 468.5656Q281.65552 467.7531 280.78052 467.7531Q279.93677 467.7531 279.43677 468.47186Q278.79614 469.39374 278.79614 471.8625ZM285.53052 471.8625Q285.53052 470.08124 285.8899 469.0031Q286.2649 467.90936 286.98364 467.33124Q287.7024 466.7375 288.79614 466.7375Q289.60864 466.7375 290.21802 467.0656Q290.8274 467.39374 291.21802 468.0031Q291.62427 468.6125 291.84302 469.4875Q292.06177 470.3625 292.06177 471.8625Q292.06177 473.6281 291.7024 474.70624Q291.34302 475.78436 290.62427 476.3781Q289.90552 476.97186 288.79614 476.97186Q287.35864 476.97186 286.53052 475.925Q285.53052 474.675 285.53052 471.8625ZM286.79614 471.8625Q286.79614 474.33124 287.37427 475.14374Q287.9524 475.95624 288.79614 475.95624Q289.65552 475.95624 290.23364 475.14374Q290.81177 474.3156 290.81177 471.8625Q290.81177 469.3781 290.23364 468.5656Q289.65552 467.7531 288.78052 467.7531Q287.93677 467.7531 287.43677 468.47186Q286.79614 469.39374 286.79614 471.8625ZM294.68677 479.7531L293.79614 479.7531Q295.84302 476.47186 295.84302 473.175Q295.84302 471.89374 295.54614 470.6281Q295.31177 469.59686 294.90552 468.65936Q294.6399 468.05 293.79614 466.6125L294.68677 466.6125Q295.96802 468.3156 296.5774 470.05Q297.10864 471.55 297.10864 473.175Q297.10864 475.01874 296.3899 476.7375Q295.68677 478.45624 294.68677 479.7531ZM302.98364 476.8L302.98364 466.78436L304.31177 466.78436L304.31177 471.7531L309.28052 466.78436L311.0774 466.78436L306.87427 470.83124L311.2649 476.8L309.5149 476.8L305.9524 471.72186L304.31177 473.33124L304.31177 476.8L302.98364 476.8ZM311.98364 476.8L311.98364 466.78436L315.73364 466.78436Q316.8899 466.78436 317.5774 467.09686Q318.28052 467.39374 318.67114 468.01874Q319.06177 468.64374 319.06177 469.34686Q319.06177 469.9875 318.7024 470.55Q318.35864 471.1125 317.65552 471.47186Q318.56177 471.7375 319.04614 472.3781Q319.54614 473.01874 319.54614 473.89374Q319.54614 474.59686 319.24927 475.20624Q318.9524 475.8156 318.5149 476.14374Q318.0774 476.47186 317.40552 476.64374Q316.74927 476.8 315.79614 476.8L311.98364 476.8ZM313.31177 470.9875L315.46802 470.9875Q316.35864 470.9875 316.73364 470.8781Q317.24927 470.72186 317.49927 470.3781Q317.74927 470.01874 317.74927 469.5031Q317.74927 469.0031 317.5149 468.6281Q317.28052 468.2375 316.8274 468.09686Q316.3899 467.95624 315.31177 467.95624L313.31177 467.95624L313.31177 470.9875ZM313.31177 475.6125L315.79614 475.6125Q316.43677 475.6125 316.7024 475.5656Q317.15552 475.4875 317.46802 475.3Q317.78052 475.09686 317.96802 474.7375Q318.17114 474.3781 318.17114 473.89374Q318.17114 473.33124 317.87427 472.925Q317.59302 472.5031 317.0774 472.34686Q316.5774 472.175 315.62427 472.175L313.31177 472.175L313.31177 475.6125ZM319.9524 476.97186L322.85864 466.6125L323.84302 466.6125L320.93677 476.97186L319.9524 476.97186ZM324.3899 474.6281L325.59302 474.4406Q325.7024 475.175 326.17114 475.5656Q326.6399 475.95624 327.48364 475.95624Q328.3274 475.95624 328.73364 475.6125Q329.15552 475.26874 329.15552 474.8Q329.15552 474.3781 328.78052 474.14374Q328.53052 473.97186 327.53052 473.72186Q326.17114 473.3781 325.6399 473.1281Q325.12427 472.8781 324.85864 472.4406Q324.59302 472.0031 324.59302 471.47186Q324.59302 470.9875 324.81177 470.58124Q325.03052 470.15936 325.42114 469.8781Q325.7024 469.675 326.18677 469.53436Q326.68677 469.3781 327.2649 469.3781Q328.10864 469.3781 328.74927 469.6281Q329.40552 469.8625 329.71802 470.28436Q330.03052 470.70624 330.1399 471.40936L328.93677 471.58124Q328.85864 471.01874 328.4524 470.70624Q328.06177 470.39374 327.34302 470.39374Q326.49927 470.39374 326.1399 470.675Q325.78052 470.9406 325.78052 471.33124Q325.78052 471.5656 325.92114 471.7531Q326.0774 471.95624 326.40552 472.08124Q326.5774 472.14374 327.48364 472.39374Q328.79614 472.7531 329.31177 472.97186Q329.8274 473.1906 330.10864 473.6125Q330.40552 474.03436 330.40552 474.65936Q330.40552 475.28436 330.04614 475.83124Q329.7024 476.3625 329.0149 476.675Q328.34302 476.97186 327.48364 476.97186Q326.0774 476.97186 325.3274 476.3781Q324.59302 475.78436 324.3899 474.6281Z" fill-rule="nonzero"/><path fill="#000000" d="M352.92932 479.58124L352.92932 466.78436L355.64807 466.78436L355.64807 467.8L354.1637 467.8L354.1637 478.5656L355.64807 478.5656L355.64807 479.58124L352.92932 479.58124ZM361.19495 476.8L359.96057 476.8L359.96057 468.95624Q359.52307 469.3781 358.7887 469.8156Q358.06995 470.2375 357.50745 470.4406L357.50745 469.2531Q358.5387 468.76874 359.30432 468.08124Q360.08557 467.39374 360.39807 466.7375L361.19495 466.7375L361.19495 476.8ZM365.2262 476.8L365.2262 475.39374L366.61682 475.39374L366.61682 476.8Q366.61682 477.5656 366.33557 478.03436Q366.06995 478.51874 365.4762 478.78436L365.13245 478.2531Q365.52307 478.08124 365.71057 477.7531Q365.89807 477.425 365.9137 476.8L365.2262 476.8ZM375.02307 475.6125L375.02307 476.8L368.39807 476.8Q368.38245 476.3625 368.5387 475.9406Q368.80432 475.26874 369.3512 474.6125Q369.9137 473.95624 370.96057 473.09686Q372.6012 471.7531 373.1637 470.97186Q373.74182 470.1906 373.74182 469.4875Q373.74182 468.7531 373.21057 468.2531Q372.69495 467.7531 371.86682 467.7531Q370.9762 467.7531 370.42932 468.28436Q369.89807 468.8156 369.89807 469.76874L368.63245 469.6281Q368.75745 468.22186 369.6012 467.4875Q370.46057 466.7375 371.88245 466.7375Q373.33557 466.7375 374.1637 467.53436Q375.00745 468.33124 375.00745 469.51874Q375.00745 470.1281 374.75745 470.70624Q374.52307 471.28436 373.94495 471.925Q373.38245 472.5656 372.05432 473.6906Q370.94495 474.6125 370.63245 474.95624Q370.31995 475.28436 370.11682 475.6125L375.02307 475.6125ZM378.96057 479.58124L376.24182 479.58124L376.24182 478.5656L377.7262 478.5656L377.7262 467.8L376.24182 467.8L376.24182 466.78436L378.96057 466.78436L378.96057 479.58124ZM385.02307 476.8L385.02307 466.78436L387.00745 466.78436L389.38245 473.8781Q389.71057 474.8625 389.86682 475.3625Q390.0387 474.8156 390.39807 473.7531L392.7887 466.78436L394.58557 466.78436L394.58557 476.8L393.30432 476.8L393.30432 468.40936L390.38245 476.8L389.19495 476.8L386.2887 468.26874L386.2887 476.8L385.02307 476.8ZM396.00745 476.8L396.00745 466.78436L399.75745 466.78436Q400.9137 466.78436 401.6012 467.09686Q402.30432 467.39374 402.69495 468.01874Q403.08557 468.64374 403.08557 469.34686Q403.08557 469.9875 402.7262 470.55Q402.38245 471.1125 401.67932 471.47186Q402.58557 471.7375 403.06995 472.3781Q403.56995 473.01874 403.56995 473.89374Q403.56995 474.59686 403.27307 475.20624Q402.9762 475.8156 402.5387 476.14374Q402.1012 476.47186 401.42932 476.64374Q400.77307 476.8 399.81995 476.8L396.00745 476.8ZM397.33557 470.9875L399.49182 470.9875Q400.38245 470.9875 400.75745 470.8781Q401.27307 470.72186 401.52307 470.3781Q401.77307 470.01874 401.77307 469.5031Q401.77307 469.0031 401.5387 468.6281Q401.30432 468.2375 400.8512 468.09686Q400.4137 467.95624 399.33557 467.95624L397.33557 467.95624L397.33557 470.9875ZM397.33557 475.6125L399.81995 475.6125Q400.46057 475.6125 400.7262 475.5656Q401.17932 475.4875 401.49182 475.3Q401.80432 475.09686 401.99182 474.7375Q402.19495 474.3781 402.19495 473.89374Q402.19495 473.33124 401.89807 472.925Q401.61682 472.5031 401.1012 472.34686Q400.6012 472.175 399.64807 472.175L397.33557 472.175L397.33557 475.6125ZM403.9762 476.97186L406.88245 466.6125L407.86682 466.6125L404.96057 476.97186L403.9762 476.97186ZM408.4137 474.6281L409.61682 474.4406Q409.7262 475.175 410.19495 475.5656Q410.6637 475.95624 411.50745 475.95624Q412.3512 475.95624 412.75745 475.6125Q413.17932 475.26874 413.17932 474.8Q413.17932 474.3781 412.80432 474.14374Q412.55432 473.97186 411.55432 473.72186Q410.19495 473.3781 409.6637 473.1281Q409.14807 472.8781 408.88245 472.4406Q408.61682 472.0031 408.61682 471.47186Q408.61682 470.9875 408.83557 470.58124Q409.05432 470.15936 409.44495 469.8781Q409.7262 469.675 410.21057 469.53436Q410.71057 469.3781 411.2887 469.3781Q412.13245 469.3781 412.77307 469.6281Q413.42932 469.8625 413.74182 470.28436Q414.05432 470.70624 414.1637 471.40936L412.96057 471.58124Q412.88245 471.01874 412.4762 470.70624Q412.08557 470.39374 411.36682 470.39374Q410.52307 470.39374 410.1637 470.675Q409.80432 470.9406 409.80432 471.33124Q409.80432 471.5656 409.94495 471.7531Q410.1012 471.95624 410.42932 472.08124Q410.6012 472.14374 411.50745 472.39374Q412.81995 472.7531 413.33557 472.97186Q413.8512 473.1906 414.13245 473.6125Q414.42932 474.03436 414.42932 474.65936Q414.42932 475.28436 414.06995 475.83124Q413.7262 476.3625 413.0387 476.675Q412.36682 476.97186 411.50745 476.97186Q410.1012 476.97186 409.3512 476.3781Q408.61682 475.78436 408.4137 474.6281Z" fill-rule="nonzero"/><path fill="#000000" d="M457.95312 479.58124L457.95312 466.78436L460.67188 466.78436L460.67188 467.8L459.1875 467.8L459.1875 478.5656L460.67188 478.5656L460.67188 479.58124L457.95312 479.58124ZM468.04688 475.6125L468.04688 476.8L461.42188 476.8Q461.40625 476.3625 461.5625 475.9406Q461.82812 475.26874 462.375 474.6125Q462.9375 473.95624 463.98438 473.09686Q465.625 471.7531 466.1875 470.97186Q466.76562 470.1906 466.76562 469.4875Q466.76562 468.7531 466.23438 468.2531Q465.71875 467.7531 464.89062 467.7531Q464.0 467.7531 463.45312 468.28436Q462.92188 468.8156 462.92188 469.76874L461.65625 469.6281Q461.78125 468.22186 462.625 467.4875Q463.48438 466.7375 464.90625 466.7375Q466.35938 466.7375 467.1875 467.53436Q468.03125 468.33124 468.03125 469.51874Q468.03125 470.1281 467.78125 470.70624Q467.54688 471.28436 466.96875 471.925Q466.40625 472.5656 465.07812 473.6906Q463.96875 474.6125 463.65625 474.95624Q463.34375 475.28436 463.14062 475.6125L468.04688 475.6125ZM470.25 476.8L470.25 475.39374L471.64062 475.39374L471.64062 476.8Q471.64062 477.5656 471.35938 478.03436Q471.09375 478.51874 470.5 478.78436L470.15625 478.2531Q470.54688 478.08124 470.73438 477.7531Q470.92188 477.425 470.9375 476.8L470.25 476.8ZM477.53125 476.8L477.53125 474.39374L473.17188 474.39374L473.17188 473.26874L477.75 466.78436L478.75 466.78436L478.75 473.26874L480.10938 473.26874L480.10938 474.39374L478.75 474.39374L478.75 476.8L477.53125 476.8ZM477.53125 473.26874L477.53125 468.7531L474.39062 473.26874L477.53125 473.26874ZM482.73438 479.7531L481.84375 479.7531Q483.89062 476.47186 483.89062 473.175Q483.89062 471.89374 483.59375 470.6281Q483.35938 469.59686 482.95312 468.65936Q482.6875 468.05 481.84375 466.6125L482.73438 466.6125Q484.01562 468.3156 484.625 470.05Q485.15625 471.55 485.15625 473.175Q485.15625 475.01874 484.4375 476.7375Q483.73438 478.45624 482.73438 479.7531ZM491.04688 476.8L491.04688 466.78436L493.03125 466.78436L495.40625 473.8781Q495.73438 474.8625 495.89062 475.3625Q496.0625 474.8156 496.42188 473.7531L498.8125 466.78436L500.60938 466.78436L500.60938 476.8L499.32812 476.8L499.32812 468.40936L496.40625 476.8L495.21875 476.8L492.3125 468.26874L492.3125 476.8L491.04688 476.8ZM502.03125 476.8L502.03125 466.78436L505.78125 466.78436Q506.9375 466.78436 507.625 467.09686Q508.32812 467.39374 508.71875 468.01874Q509.10938 468.64374 509.10938 469.34686Q509.10938 469.9875 508.75 470.55Q508.40625 471.1125 507.70312 471.47186Q508.60938 471.7375 509.09375 472.3781Q509.59375 473.01874 509.59375 473.89374Q509.59375 474.59686 509.29688 475.20624Q509.0 475.8156 508.5625 476.14374Q508.125 476.47186 507.45312 476.64374Q506.79688 476.8 505.84375 476.8L502.03125 476.8ZM503.35938 470.9875L505.51562 470.9875Q506.40625 470.9875 506.78125 470.8781Q507.29688 470.72186 507.54688 470.3781Q507.79688 470.01874 507.79688 469.5031Q507.79688 469.0031 507.5625 468.6281Q507.32812 468.2375 506.875 468.09686Q506.4375 467.95624 505.35938 467.95624L503.35938 467.95624L503.35938 470.9875ZM503.35938 475.6125L505.84375 475.6125Q506.48438 475.6125 506.75 475.5656Q507.20312 475.4875 507.51562 475.3Q507.82812 475.09686 508.01562 474.7375Q508.21875 474.3781 508.21875 473.89374Q508.21875 473.33124 507.92188 472.925Q507.64062 472.5031 507.125 472.34686Q506.625 472.175 505.67188 472.175L503.35938 472.175L503.35938 475.6125ZM510.0 476.97186L512.90625 466.6125L513.8906 466.6125L510.98438 476.97186L510.0 476.97186ZM514.4375 474.6281L515.6406 474.4406Q515.75 475.175 516.21875 475.5656Q516.6875 475.95624 517.53125 475.95624Q518.375 475.95624 518.78125 475.6125Q519.2031 475.26874 519.2031 474.8Q519.2031 474.3781 518.8281 474.14374Q518.5781 473.97186 517.5781 473.72186Q516.21875 473.3781 515.6875 473.1281Q515.1719 472.8781 514.90625 472.4406Q514.6406 472.0031 514.6406 471.47186Q514.6406 470.9875 514.8594 470.58124Q515.0781 470.15936 515.46875 469.8781Q515.75 469.675 516.2344 469.53436Q516.7344 469.3781 517.3125 469.3781Q518.15625 469.3781 518.7969 469.6281Q519.4531 469.8625 519.7656 470.28436Q520.0781 470.70624 520.1875 471.40936L518.9844 471.58124Q518.90625 471.01874 518.5 470.70624Q518.1094 470.39374 517.3906 470.39374Q516.5469 470.39374 516.1875 470.675Q515.8281 470.9406 515.8281 471.33124Q515.8281 471.5656 515.96875 471.7531Q516.125 471.95624 516.4531 472.08124Q516.625 472.14374 517.53125 472.39374Q518.84375 472.7531 519.3594 472.97186Q519.875 473.1906 520.15625 473.6125Q520.4531 474.03436 520.4531 474.65936Q520.4531 475.28436 520.09375 475.83124Q519.75 476.3625 519.0625 476.675Q518.3906 476.97186 517.53125 476.97186Q516.125 476.97186 515.375 476.3781Q514.6406 475.78436 514.4375 474.6281Z" fill-rule="nonzero"/><path fill="#000000" d="M557.4769 479.58124L557.4769 466.78436L560.1957 466.78436L560.1957 467.8L558.7113 467.8L558.7113 478.5656L560.1957 478.5656L560.1957 479.58124L557.4769 479.58124ZM565.05505 476.8L565.05505 474.39374L560.6957 474.39374L560.6957 473.26874L565.2738 466.78436L566.2738 466.78436L566.2738 473.26874L567.6332 473.26874L567.6332 474.39374L566.2738 474.39374L566.2738 476.8L565.05505 476.8ZM565.05505 473.26874L565.05505 468.7531L561.9144 473.26874L565.05505 473.26874ZM569.7738 476.8L569.7738 475.39374L571.1644 475.39374L571.1644 476.8Q571.1644 477.5656 570.8832 478.03436Q570.61755 478.51874 570.0238 478.78436L569.68005 478.2531Q570.0707 478.08124 570.2582 477.7531Q570.4457 477.425 570.4613 476.8L569.7738 476.8ZM581.74255 476.8L580.5082 476.8L580.5082 468.95624Q580.0707 469.3781 579.3363 469.8156Q578.61755 470.2375 578.05505 470.4406L578.05505 469.2531Q579.0863 468.76874 579.8519 468.08124Q580.6332 467.39374 580.9457 466.7375L581.74255 466.7375L581.74255 476.8ZM585.1019 471.8625Q585.1019 470.08124 585.4613 469.0031Q585.8363 467.90936 586.55505 467.33124Q587.2738 466.7375 588.36755 466.7375Q589.18005 466.7375 589.7894 467.0656Q590.3988 467.39374 590.7894 468.0031Q591.1957 468.6125 591.4144 469.4875Q591.6332 470.3625 591.6332 471.8625Q591.6332 473.6281 591.2738 474.70624Q590.9144 475.78436 590.1957 476.3781Q589.4769 476.97186 588.36755 476.97186Q586.93005 476.97186 586.1019 475.925Q585.1019 474.675 585.1019 471.8625ZM586.36755 471.8625Q586.36755 474.33124 586.9457 475.14374Q587.5238 475.95624 588.36755 475.95624Q589.2269 475.95624 589.80505 475.14374Q590.3832 474.3156 590.3832 471.8625Q590.3832 469.3781 589.80505 468.5656Q589.2269 467.7531 588.3519 467.7531Q587.5082 467.7531 587.0082 468.47186Q586.36755 469.39374 586.36755 471.8625ZM594.2582 479.7531L593.36755 479.7531Q595.4144 476.47186 595.4144 473.175Q595.4144 471.89374 595.11755 470.6281Q594.8832 469.59686 594.4769 468.65936Q594.2113 468.05 593.36755 466.6125L594.2582 466.6125Q595.5394 468.3156 596.1488 470.05Q596.68005 471.55 596.68005 473.175Q596.68005 475.01874 595.9613 476.7375Q595.2582 478.45624 594.2582 479.7531ZM602.5707 476.8L602.5707 466.78436L604.55505 466.78436L606.93005 473.8781Q607.2582 474.8625 607.4144 475.3625Q607.5863 474.8156 607.9457 473.7531L610.3363 466.78436L612.1332 466.78436L612.1332 476.8L610.8519 476.8L610.8519 468.40936L607.93005 476.8L606.74255 476.8L603.8363 468.26874L603.8363 476.8L602.5707 476.8ZM613.55505 476.8L613.55505 466.78436L617.30505 466.78436Q618.4613 466.78436 619.1488 467.09686Q619.8519 467.39374 620.24255 468.01874Q620.6332 468.64374 620.6332 469.34686Q620.6332 469.9875 620.2738 470.55Q619.93005 471.1125 619.2269 471.47186Q620.1332 471.7375 620.61755 472.3781Q621.11755 473.01874 621.11755 473.89374Q621.11755 474.59686 620.8207 475.20624Q620.5238 475.8156 620.0863 476.14374Q619.6488 476.47186 618.9769 476.64374Q618.3207 476.8 617.36755 476.8L613.55505 476.8ZM614.8832 470.9875L617.0394 470.9875Q617.93005 470.9875 618.30505 470.8781Q618.8207 470.72186 619.0707 470.3781Q619.3207 470.01874 619.3207 469.5031Q619.3207 469.0031 619.0863 468.6281Q618.8519 468.2375 618.3988 468.09686Q617.9613 467.95624 616.8832 467.95624L614.8832 467.95624L614.8832 470.9875ZM614.8832 475.6125L617.36755 475.6125Q618.0082 475.6125 618.2738 475.5656Q618.7269 475.4875 619.0394 475.3Q619.3519 475.09686 619.5394 474.7375Q619.74255 474.3781 619.74255 473.89374Q619.74255 473.33124 619.4457 472.925Q619.1644 472.5031 618.6488 472.34686Q618.1488 472.175 617.1957 472.175L614.8832 472.175L614.8832 475.6125ZM621.5238 476.97186L624.43005 466.6125L625.4144 466.6125L622.5082 476.97186L621.5238 476.97186ZM625.9613 474.6281L627.1644 474.4406Q627.2738 475.175 627.74255 475.5656Q628.2113 475.95624 629.05505 475.95624Q629.8988 475.95624 630.30505 475.6125Q630.7269 475.26874 630.7269 474.8Q630.7269 474.3781 630.3519 474.14374Q630.1019 473.97186 629.1019 473.72186Q627.74255 473.3781 627.2113 473.1281Q626.6957 472.8781 626.43005 472.4406Q626.1644 472.0031 626.1644 471.47186Q626.1644 470.9875 626.3832 470.58124Q626.6019 470.15936 626.99255 469.8781Q627.2738 469.675 627.7582 469.53436Q628.2582 469.3781 628.8363 469.3781Q629.68005 469.3781 630.3207 469.6281Q630.9769 469.8625 631.2894 470.28436Q631.6019 470.70624 631.7113 471.40936L630.5082 471.58124Q630.43005 471.01874 630.0238 470.70624Q629.6332 470.39374 628.9144 470.39374Q628.0707 470.39374 627.7113 470.675Q627.3519 470.9406 627.3519 471.33124Q627.3519 471.5656 627.49255 471.7531Q627.6488 471.95624 627.9769 472.08124Q628.1488 472.14374 629.05505 472.39374Q630.36755 472.7531 630.8832 472.97186Q631.3988 473.1906 631.68005 473.6125Q631.9769 474.03436 631.9769 474.65936Q631.9769 475.28436 631.61755 475.83124Q631.2738 476.3625 630.5863 476.675Q629.9144 476.97186 629.05505 476.97186Q627.6488 476.97186 626.8988 476.3781Q626.1644 475.78436 625.9613 474.6281Z" fill-rule="nonzero"/><path fill="#000000" d="M659.00073 479.58124L659.00073 466.78436L661.7195 466.78436L661.7195 467.8L660.2351 467.8L660.2351 478.5656L661.7195 478.5656L661.7195 479.58124L659.00073 479.58124ZM667.26636 476.8L666.032 476.8L666.032 468.95624Q665.5945 469.3781 664.8601 469.8156Q664.14136 470.2375 663.57886 470.4406L663.57886 469.2531Q664.6101 468.76874 665.37573 468.08124Q666.157 467.39374 666.4695 466.7375L667.26636 466.7375L667.26636 476.8ZM670.62573 471.8625Q670.62573 470.08124 670.9851 469.0031Q671.3601 467.90936 672.07886 467.33124Q672.7976 466.7375 673.89136 466.7375Q674.70386 466.7375 675.31323 467.0656Q675.9226 467.39374 676.31323 468.0031Q676.7195 468.6125 676.93823 469.4875Q677.157 470.3625 677.157 471.8625Q677.157 473.6281 676.7976 474.70624Q676.43823 475.78436 675.7195 476.3781Q675.00073 476.97186 673.89136 476.97186Q672.45386 476.97186 671.62573 475.925Q670.62573 474.675 670.62573 471.8625ZM671.89136 471.8625Q671.89136 474.33124 672.4695 475.14374Q673.0476 475.95624 673.89136 475.95624Q674.75073 475.95624 675.32886 475.14374Q675.907 474.3156 675.907 471.8625Q675.907 469.3781 675.32886 468.5656Q674.75073 467.7531 673.87573 467.7531Q673.032 467.7531 672.532 468.47186Q671.89136 469.39374 671.89136 471.8625ZM679.2976 476.8L679.2976 475.39374L680.68823 475.39374L680.68823 476.8Q680.68823 477.5656 680.407 478.03436Q680.14136 478.51874 679.5476 478.78436L679.20386 478.2531Q679.5945 478.08124 679.782 477.7531Q679.9695 477.425 679.9851 476.8L679.2976 476.8ZM686.62573 474.175L687.9226 474.0656Q688.06323 475.0031 688.57886 475.4875Q689.1101 475.95624 689.8445 475.95624Q690.7351 475.95624 691.3445 475.28436Q691.9695 474.6125 691.9695 473.51874Q691.9695 472.45624 691.37573 471.84686Q690.782 471.2375 689.82886 471.2375Q689.2351 471.2375 688.75073 471.51874Q688.282 471.78436 688.00073 472.20624L686.8445 472.0656L687.81323 466.90936L692.7976 466.90936L692.7976 468.09686L688.7976 468.09686L688.26636 470.78436Q689.1726 470.15936 690.157 470.15936Q691.4695 470.15936 692.3601 471.0656Q693.26636 471.97186 693.26636 473.40936Q693.26636 474.76874 692.4851 475.7531Q691.51636 476.97186 689.8445 476.97186Q688.4851 476.97186 687.6101 476.20624Q686.75073 475.4406 686.62573 474.175ZM694.62573 471.8625Q694.62573 470.08124 694.9851 469.0031Q695.3601 467.90936 696.07886 467.33124Q696.7976 466.7375 697.89136 466.7375Q698.70386 466.7375 699.31323 467.0656Q699.9226 467.39374 700.31323 468.0031Q700.7195 468.6125 700.93823 469.4875Q701.157 470.3625 701.157 471.8625Q701.157 473.6281 700.7976 474.70624Q700.43823 475.78436 699.7195 476.3781Q699.00073 476.97186 697.89136 476.97186Q696.45386 476.97186 695.62573 475.925Q694.62573 474.675 694.62573 471.8625ZM695.89136 471.8625Q695.89136 474.33124 696.4695 475.14374Q697.0476 475.95624 697.89136 475.95624Q698.75073 475.95624 699.32886 475.14374Q699.907 474.3156 699.907 471.8625Q699.907 469.3781 699.32886 468.5656Q698.75073 467.7531 697.87573 467.7531Q697.032 467.7531 696.532 468.47186Q695.89136 469.39374 695.89136 471.8625ZM703.782 479.7531L702.89136 479.7531Q704.93823 476.47186 704.93823 473.175Q704.93823 471.89374 704.64136 470.6281Q704.407 469.59686 704.00073 468.65936Q703.7351 468.05 702.89136 466.6125L703.782 466.6125Q705.06323 468.3156 705.6726 470.05Q706.20386 471.55 706.20386 473.175Q706.20386 475.01874 705.4851 476.7375Q704.782 478.45624 703.782 479.7531ZM712.0945 476.8L712.0945 466.78436L714.07886 466.78436L716.45386 473.8781Q716.782 474.8625 716.93823 475.3625Q717.1101 474.8156 717.4695 473.7531L719.8601 466.78436L721.657 466.78436L721.657 476.8L720.37573 476.8L720.37573 468.40936L717.45386 476.8L716.26636 476.8L713.3601 468.26874L713.3601 476.8L712.0945 476.8ZM723.07886 476.8L723.07886 466.78436L726.82886 466.78436Q727.9851 466.78436 728.6726 467.09686Q729.37573 467.39374 729.76636 468.01874Q730.157 468.64374 730.157 469.34686Q730.157 469.9875 729.7976 470.55Q729.45386 471.1125 728.75073 471.47186Q729.657 471.7375 730.14136 472.3781Q730.64136 473.01874 730.64136 473.89374Q730.64136 474.59686 730.3445 475.20624Q730.0476 475.8156 729.6101 476.14374Q729.1726 476.47186 728.50073 476.64374Q727.8445 476.8 726.89136 476.8L723.07886 476.8ZM724.407 470.9875L726.56323 470.9875Q727.45386 470.9875 727.82886 470.8781Q728.3445 470.72186 728.5945 470.3781Q728.8445 470.01874 728.8445 469.5031Q728.8445 469.0031 728.6101 468.6281Q728.37573 468.2375 727.9226 468.09686Q727.4851 467.95624 726.407 467.95624L724.407 467.95624L724.407 470.9875ZM724.407 475.6125L726.89136 475.6125Q727.532 475.6125 727.7976 475.5656Q728.25073 475.4875 728.56323 475.3Q728.87573 475.09686 729.06323 474.7375Q729.26636 474.3781 729.26636 473.89374Q729.26636 473.33124 728.9695 472.925Q728.68823 472.5031 728.1726 472.34686Q727.6726 472.175 726.7195 472.175L724.407 472.175L724.407 475.6125ZM731.0476 476.97186L733.95386 466.6125L734.93823 466.6125L732.032 476.97186L731.0476 476.97186ZM735.4851 474.6281L736.68823 474.4406Q736.7976 475.175 737.26636 475.5656Q737.7351 475.95624 738.57886 475.95624Q739.4226 475.95624 739.82886 475.6125Q740.25073 475.26874 740.25073 474.8Q740.25073 474.3781 739.87573 474.14374Q739.62573 473.97186 738.62573 473.72186Q737.26636 473.3781 736.7351 473.1281Q736.2195 472.8781 735.95386 472.4406Q735.68823 472.0031 735.68823 471.47186Q735.68823 470.9875 735.907 470.58124Q736.12573 470.15936 736.51636 469.8781Q736.7976 469.675 737.282 469.53436Q737.782 469.3781 738.3601 469.3781Q739.20386 469.3781 739.8445 469.6281Q740.50073 469.8625 740.81323 470.28436Q741.12573 470.70624 741.2351 471.40936L740.032 471.58124Q739.95386 471.01874 739.5476 470.70624Q739.157 470.39374 738.43823 470.39374Q737.5945 470.39374 737.2351 470.675Q736.87573 470.9406 736.87573 471.33124Q736.87573 471.5656 737.01636 471.7531Q737.1726 471.95624 737.50073 472.08124Q737.6726 472.14374 738.57886 472.39374Q739.89136 472.7531 740.407 472.97186Q740.9226 473.1906 741.20386 473.6125Q741.50073 474.03436 741.50073 474.65936Q741.50073 475.28436 741.14136 475.83124Q740.7976 476.3625 740.1101 476.675Q739.43823 476.97186 738.57886 476.97186Q737.1726 476.97186 736.4226 476.3781Q735.68823 475.78436 735.4851 474.6281Z" fill-rule="nonzero"/><path fill="#000000" d="M762.52454 479.58124L762.52454 466.78436L765.2433 466.78436L765.2433 467.8L763.7589 467.8L763.7589 478.5656L765.2433 478.5656L765.2433 479.58124L762.52454 479.58124ZM766.14954 474.175L767.4464 474.0656Q767.58704 475.0031 768.10266 475.4875Q768.6339 475.95624 769.3683 475.95624Q770.2589 475.95624 770.8683 475.28436Q771.4933 474.6125 771.4933 473.51874Q771.4933 472.45624 770.89954 471.84686Q770.3058 471.2375 769.35266 471.2375Q768.7589 471.2375 768.27454 471.51874Q767.8058 471.78436 767.52454 472.20624L766.3683 472.0656L767.33704 466.90936L772.3214 466.90936L772.3214 468.09686L768.3214 468.09686L767.79016 470.78436Q768.6964 470.15936 769.6808 470.15936Q770.9933 470.15936 771.8839 471.0656Q772.79016 471.97186 772.79016 473.40936Q772.79016 474.76874 772.0089 475.7531Q771.04016 476.97186 769.3683 476.97186Q768.0089 476.97186 767.1339 476.20624Q766.27454 475.4406 766.14954 474.175ZM774.14954 471.8625Q774.14954 470.08124 774.5089 469.0031Q774.8839 467.90936 775.60266 467.33124Q776.3214 466.7375 777.41516 466.7375Q778.22766 466.7375 778.83704 467.0656Q779.4464 467.39374 779.83704 468.0031Q780.2433 468.6125 780.46204 469.4875Q780.6808 470.3625 780.6808 471.8625Q780.6808 473.6281 780.3214 474.70624Q779.96204 475.78436 779.2433 476.3781Q778.52454 476.97186 777.41516 476.97186Q775.97766 476.97186 775.14954 475.925Q774.14954 474.675 774.14954 471.8625ZM775.41516 471.8625Q775.41516 474.33124 775.9933 475.14374Q776.5714 475.95624 777.41516 475.95624Q778.27454 475.95624 778.85266 475.14374Q779.4308 474.3156 779.4308 471.8625Q779.4308 469.3781 778.85266 468.5656Q778.27454 467.7531 777.39954 467.7531Q776.5558 467.7531 776.0558 468.47186Q775.41516 469.39374 775.41516 471.8625ZM782.8214 476.8L782.8214 475.39374L784.21204 475.39374L784.21204 476.8Q784.21204 477.5656 783.9308 478.03436Q783.66516 478.51874 783.0714 478.78436L782.72766 478.2531Q783.1183 478.08124 783.3058 477.7531Q783.4933 477.425 783.5089 476.8L782.8214 476.8ZM790.79016 476.8L789.5558 476.8L789.5558 468.95624Q789.1183 469.3781 788.3839 469.8156Q787.66516 470.2375 787.10266 470.4406L787.10266 469.2531Q788.1339 468.76874 788.89954 468.08124Q789.6808 467.39374 789.9933 466.7375L790.79016 466.7375L790.79016 476.8ZM794.14954 471.8625Q794.14954 470.08124 794.5089 469.0031Q794.8839 467.90936 795.60266 467.33124Q796.3214 466.7375 797.41516 466.7375Q798.22766 466.7375 798.83704 467.0656Q799.4464 467.39374 799.83704 468.0031Q800.2433 468.6125 800.46204 469.4875Q800.6808 470.3625 800.6808 471.8625Q800.6808 473.6281 800.3214 474.70624Q799.96204 475.78436 799.2433 476.3781Q798.52454 476.97186 797.41516 476.97186Q795.97766 476.97186 795.14954 475.925Q794.14954 474.675 794.14954 471.8625ZM795.41516 471.8625Q795.41516 474.33124 795.9933 475.14374Q796.5714 475.95624 797.41516 475.95624Q798.27454 475.95624 798.85266 475.14374Q799.4308 474.3156 799.4308 471.8625Q799.4308 469.3781 798.85266 468.5656Q798.27454 467.7531 797.39954 467.7531Q796.5558 467.7531 796.0558 468.47186Q795.41516 469.39374 795.41516 471.8625ZM802.14954 471.8625Q802.14954 470.08124 802.5089 469.0031Q802.8839 467.90936 803.60266 467.33124Q804.3214 466.7375 805.41516 466.7375Q806.22766 466.7375 806.83704 467.0656Q807.4464 467.39374 807.83704 468.0031Q808.2433 468.6125 808.46204 469.4875Q808.6808 470.3625 808.6808 471.8625Q808.6808 473.6281 808.3214 474.70624Q807.96204 475.78436 807.2433 476.3781Q806.52454 476.97186 805.41516 476.97186Q803.97766 476.97186 803.14954 475.925Q802.14954 474.675 802.14954 471.8625ZM803.41516 471.8625Q803.41516 474.33124 803.9933 475.14374Q804.5714 475.95624 805.41516 475.95624Q806.27454 475.95624 806.85266 475.14374Q807.4308 474.3156 807.4308 471.8625Q807.4308 469.3781 806.85266 468.5656Q806.27454 467.7531 805.39954 467.7531Q804.5558 467.7531 804.0558 468.47186Q803.41516 469.39374 803.41516 471.8625ZM811.3058 479.7531L810.41516 479.7531Q812.46204 476.47186 812.46204 473.175Q812.46204 471.89374 812.16516 470.6281Q811.9308 469.59686 811.52454 468.65936Q811.2589 468.05 810.41516 466.6125L811.3058 466.6125Q812.58704 468.3156 813.1964 470.05Q813.72766 471.55 813.72766 473.175Q813.72766 475.01874 813.0089 476.7375Q812.3058 478.45624 811.3058 479.7531ZM819.6183 476.8L819.6183 466.78436L821.60266 466.78436L823.97766 473.8781Q824.3058 474.8625 824.46204 475.3625Q824.6339 474.8156 824.9933 473.7531L827.3839 466.78436L829.1808 466.78436L829.1808 476.8L827.89954 476.8L827.89954 468.40936L824.97766 476.8L823.79016 476.8L820.8839 468.26874L820.8839 476.8L819.6183 476.8ZM830.60266 476.8L830.60266 466.78436L834.35266 466.78436Q835.5089 466.78436 836.1964 467.09686Q836.89954 467.39374 837.29016 468.01874Q837.6808 468.64374 837.6808 469.34686Q837.6808 469.9875 837.3214 470.55Q836.97766 471.1125 836.27454 471.47186Q837.1808 471.7375 837.66516 472.3781Q838.16516 473.01874 838.16516 473.89374Q838.16516 474.59686 837.8683 475.20624Q837.5714 475.8156 837.1339 476.14374Q836.6964 476.47186 836.02454 476.64374Q835.3683 476.8 834.41516 476.8L830.60266 476.8ZM831.9308 470.9875L834.08704 470.9875Q834.97766 470.9875 835.35266 470.8781Q835.8683 470.72186 836.1183 470.3781Q836.3683 470.01874 836.3683 469.5031Q836.3683 469.0031 836.1339 468.6281Q835.89954 468.2375 835.4464 468.09686Q835.0089 467.95624 833.9308 467.95624L831.9308 467.95624L831.9308 470.9875ZM831.9308 475.6125L834.41516 475.6125Q835.0558 475.6125 835.3214 475.5656Q835.77454 475.4875 836.08704 475.3Q836.39954 475.09686 836.58704 474.7375Q836.79016 474.3781 836.79016 473.89374Q836.79016 473.33124 836.4933 472.925Q836.21204 472.5031 835.6964 472.34686Q835.1964 472.175 834.2433 472.175L831.9308 472.175L831.9308 475.6125ZM838.5714 476.97186L841.47766 466.6125L842.46204 466.6125L839.5558 476.97186L838.5714 476.97186ZM843.0089 474.6281L844.21204 474.4406Q844.3214 475.175 844.79016 475.5656Q845.2589 475.95624 846.10266 475.95624Q846.9464 475.95624 847.35266 475.6125Q847.77454 475.26874 847.77454 474.8Q847.77454 474.3781 847.39954 474.14374Q847.14954 473.97186 846.14954 473.72186Q844.79016 473.3781 844.2589 473.1281Q843.7433 472.8781 843.47766 472.4406Q843.21204 472.0031 843.21204 471.47186Q843.21204 470.9875 843.4308 470.58124Q843.64954 470.15936 844.04016 469.8781Q844.3214 469.675 844.8058 469.53436Q845.3058 469.3781 845.8839 469.3781Q846.72766 469.3781 847.3683 469.6281Q848.02454 469.8625 848.33704 470.28436Q848.64954 470.70624 848.7589 471.40936L847.5558 471.58124Q847.47766 471.01874 847.0714 470.70624Q846.6808 470.39374 845.96204 470.39374Q845.1183 470.39374 844.7589 470.675Q844.39954 470.9406 844.39954 471.33124Q844.39954 471.5656 844.54016 471.7531Q844.6964 471.95624 845.02454 472.08124Q845.1964 472.14374 846.10266 472.39374Q847.41516 472.7531 847.9308 472.97186Q848.4464 473.1906 848.72766 473.6125Q849.02454 474.03436 849.02454 474.65936Q849.02454 475.28436 848.66516 475.83124Q848.3214 476.3625 847.6339 476.675Q846.96204 476.97186 846.10266 476.97186Q844.6964 476.97186 843.9464 476.3781Q843.21204 475.78436 843.0089 474.6281Z" fill-rule="nonzero"/><path fill="#757575" d="M28.746876 46.2L28.746876 31.8875L34.1375 31.8875Q35.575 31.8875 36.325 32.0125Q37.371876 32.2 38.090626 32.7Q38.809376 33.184376 39.23125 34.075Q39.66875 34.965626 39.66875 36.028126Q39.66875 37.85625 38.496876 39.121876Q37.340626 40.371876 34.309376 40.371876L30.6375 40.371876L30.6375 46.2L28.746876 46.2ZM30.6375 38.684376L34.340626 38.684376Q36.16875 38.684376 36.934376 38.0125Q37.715626 37.325 37.715626 36.075Q37.715626 35.184376 37.2625 34.54375Q36.809376 33.903126 36.075 33.7Q35.590626 33.575 34.29375 33.575L30.6375 33.575L30.6375 38.684376ZM48.29375 44.91875Q47.309376 45.746876 46.403126 46.090626Q45.496876 46.434376 44.465626 46.434376Q42.7625 46.434376 41.840626 45.60625Q40.91875 44.7625 40.91875 43.465626Q40.91875 42.7 41.2625 42.075Q41.621876 41.45 42.184376 41.075Q42.746876 40.684376 43.45 40.48125Q43.965626 40.35625 45.0125 40.215626Q47.1375 39.965626 48.1375 39.621876Q48.153126 39.2625 48.153126 39.153126Q48.153126 38.090626 47.653126 37.6375Q46.98125 37.04375 45.653126 37.04375Q44.403126 37.04375 43.809376 37.48125Q43.23125 37.91875 42.95 39.028126L41.23125 38.79375Q41.465626 37.684376 41.996876 37.0125Q42.528126 36.325 43.54375 35.965626Q44.559376 35.590626 45.903126 35.590626Q47.23125 35.590626 48.059376 35.903126Q48.8875 36.215626 49.278126 36.7Q49.66875 37.16875 49.825 37.8875Q49.91875 38.340626 49.91875 39.5125L49.91875 41.85625Q49.91875 44.309376 50.028126 44.965626Q50.1375 45.60625 50.48125 46.2L48.6375 46.2Q48.371876 45.653126 48.29375 44.91875ZM48.1375 40.996876Q47.184376 41.3875 45.2625 41.653126Q44.184376 41.809376 43.73125 42.0125Q43.29375 42.2 43.04375 42.575Q42.79375 42.95 42.79375 43.41875Q42.79375 44.121876 43.325 44.590626Q43.85625 45.059376 44.8875 45.059376Q45.903126 45.059376 46.684376 44.621876Q47.48125 44.16875 47.85625 43.403126Q48.1375 42.79375 48.1375 41.6375L48.1375 40.996876ZM52.496876 46.2L52.496876 35.825L54.075 35.825L54.075 37.403126Q54.684376 36.29375 55.2 35.95Q55.715626 35.590626 56.325 35.590626Q57.215626 35.590626 58.1375 36.153126L57.528126 37.79375Q56.8875 37.403126 56.246876 37.403126Q55.66875 37.403126 55.2 37.7625Q54.746876 38.10625 54.54375 38.715626Q54.2625 39.653126 54.2625 40.7625L54.2625 46.2L52.496876 46.2ZM63.35625 44.621876L63.60625 46.184376Q62.871876 46.340626 62.278126 46.340626Q61.325 46.340626 60.79375 46.04375Q60.278126 45.73125 60.059376 45.246876Q59.840626 44.746876 59.840626 43.16875L59.840626 37.2L58.559376 37.2L58.559376 35.825L59.840626 35.825L59.840626 33.2625L61.590626 32.2L61.590626 35.825L63.35625 35.825L63.35625 37.2L61.590626 37.2L61.590626 43.2625Q61.590626 44.0125 61.684376 44.23125Q61.778126 44.434376 61.98125 44.575Q62.2 44.7 62.590626 44.7Q62.871876 44.7 63.35625 44.621876ZM65.52812 33.903126L65.52812 31.8875L67.29375 31.8875L67.29375 33.903126L65.52812 33.903126ZM65.52812 46.2L65.52812 35.825L67.29375 35.825L67.29375 46.2L65.52812 46.2ZM73.35625 44.621876L73.60625 46.184376Q72.87187 46.340626 72.27812 46.340626Q71.325 46.340626 70.79375 46.04375Q70.27812 45.73125 70.05937 45.246876Q69.84062 44.746876 69.84062 43.16875L69.84062 37.2L68.55937 37.2L68.55937 35.825L69.84062 35.825L69.84062 33.2625L71.59062 32.2L71.59062 35.825L73.35625 35.825L73.35625 37.2L71.59062 37.2L71.59062 43.2625Q71.59062 44.0125 71.68437 44.23125Q71.77812 44.434376 71.98125 44.575Q72.2 44.7 72.59062 44.7Q72.87187 44.7 73.35625 44.621876ZM75.52812 33.903126L75.52812 31.8875L77.29375 31.8875L77.29375 33.903126L75.52812 33.903126ZM75.52812 46.2L75.52812 35.825L77.29375 35.825L77.29375 46.2L75.52812 46.2ZM78.87187 41.0125Q78.87187 38.1375 80.46562 36.746876Q81.80937 35.590626 83.73125 35.590626Q85.87187 35.590626 87.21562 36.996876Q88.575 38.403126 88.575 40.871876Q88.575 42.871876 87.98125 44.028126Q87.3875 45.16875 86.23125 45.809376Q85.09062 46.434376 83.73125 46.434376Q81.54375 46.434376 80.2 45.04375Q78.87187 43.6375 78.87187 41.0125ZM80.66875 41.0125Q80.66875 43.0125 81.52812 43.996876Q82.40312 44.98125 83.73125 44.98125Q85.04375 44.98125 85.90312 43.996876Q86.77812 42.996876 86.77812 40.95Q86.77812 39.028126 85.90312 38.04375Q85.02812 37.04375 83.73125 37.04375Q82.40312 37.04375 81.52812 38.04375Q80.66875 39.028126 80.66875 41.0125ZM90.5125 46.2L90.5125 35.825L92.10625 35.825L92.10625 37.309376Q93.24687 35.590626 95.40312 35.590626Q96.34062 35.590626 97.12187 35.934376Q97.91875 36.2625 98.30937 36.809376Q98.7 37.35625 98.85625 38.10625Q98.95 38.60625 98.95 39.825L98.95 46.2L97.18437 46.2L97.18437 39.8875Q97.18437 38.809376 96.98125 38.278126Q96.77812 37.746876 96.24687 37.434376Q95.73125 37.121876 95.02812 37.121876Q93.90312 37.121876 93.09062 37.840626Q92.27812 38.54375 92.27812 40.528126L92.27812 46.2L90.5125 46.2Z" fill-rule="nonzero"/><path fill="#757575" d="M113.40312 35.184376Q116.68437 32.7625 117.93437 29.715626L119.575 30.028126Q119.8875 30.340626 119.34062 30.41875L119.34062 30.575Q121.29375 32.91875 124.49687 34.871876L123.48125 36.2Q122.30937 35.575 121.29375 34.6375L121.29375 35.965626L116.1375 35.965626L116.1375 34.79375Q115.27812 35.73125 114.34062 36.35625L113.40312 35.184376ZM110.5125 37.684376L111.7625 37.684376L111.7625 36.121876L110.5125 36.121876L110.5125 37.684376ZM113.55937 43.3875L113.55937 44.6375L110.5125 44.6375L110.5125 48.153126L109.18437 48.153126L109.18437 44.6375L106.21562 44.6375L106.21562 43.3875L109.18437 43.3875L109.18437 41.746876L107.85625 41.746876L106.60625 41.746876L106.60625 34.871876L109.18437 34.871876L109.18437 33.3875L106.21562 33.3875L106.21562 32.1375L109.18437 32.1375L109.18437 30.10625L110.43437 30.10625Q111.05937 30.184376 110.5125 30.575L110.5125 32.1375L113.24687 32.1375L113.24687 33.3875L110.5125 33.3875L110.5125 34.871876L113.09062 34.871876L113.09062 41.746876L110.5125 41.746876L110.5125 43.3875L113.55937 43.3875ZM111.7625 38.934376L110.5125 38.934376L110.5125 40.496876L111.7625 40.496876L111.7625 38.934376ZM109.18437 38.934376L107.93437 38.934376L107.93437 40.496876L109.18437 40.496876L109.18437 38.934376ZM107.93437 36.121876L107.93437 37.684376L109.18437 37.684376L109.18437 36.121876L107.93437 36.121876ZM121.1375 34.48125Q119.73125 33.3875 118.55937 31.746876Q117.54375 33.465626 116.45 34.48125L121.1375 34.48125ZM119.49687 45.184376L119.49687 37.60625L120.74687 37.60625Q121.37187 37.684376 120.825 38.075L120.825 45.184376L119.49687 45.184376ZM123.325 36.66875Q123.95 36.746876 123.40312 37.1375L123.40312 46.590626Q123.40312 47.7625 122.54375 47.7625L120.90312 47.7625L120.66875 46.5125L121.7625 46.5125Q122.075 46.5125 122.075 46.2L122.075 36.66875L123.325 36.66875ZM115.5125 43.934376L115.5125 47.996876L114.18437 47.996876L114.18437 37.059376L118.71562 37.059376L118.71562 46.746876Q118.71562 47.91875 117.85625 47.91875L116.52812 47.91875L116.29375 46.66875L117.075 46.66875Q117.3875 46.66875 117.3875 46.35625L117.3875 43.934376L115.5125 43.934376ZM115.5125 39.95L117.3875 39.95L117.3875 38.309376L115.5125 38.309376L115.5125 39.95ZM115.5125 42.684376L117.3875 42.684376L117.3875 41.2L115.5125 41.2L115.5125 42.684376ZM142.85625 47.215626Q136.84062 44.090626 135.27812 37.371876Q133.6375 44.95 127.3875 47.684376L126.45 45.8875Q133.24687 43.075 133.79375 35.028126L134.80937 35.10625L134.80937 32.60625L130.74687 32.60625L130.74687 31.121876L136.60625 31.121876L136.60625 33.934376Q136.60625 41.434376 143.95 45.2625L142.85625 47.215626ZM153.95 45.965626Q151.1375 47.60625 147.54375 48.153126L146.99687 46.5125Q150.98125 45.809376 153.09062 44.403126L151.1375 44.403126L151.1375 45.028126L149.575 45.028126L149.575 36.121876Q148.87187 36.903126 147.62187 37.684376L146.52812 36.2Q150.5125 33.7 151.84062 29.95L153.48125 30.340626Q153.79375 30.653126 153.24687 30.73125L153.0125 31.278126L158.16875 31.278126L158.55937 30.73125L160.04375 31.66875Q160.35625 32.059376 159.73125 32.1375L157.85625 34.325L161.84062 34.325L161.84062 44.79375L160.27812 44.79375L160.27812 44.403126L158.09062 44.403126Q160.59062 45.653126 164.10625 46.278126L163.55937 47.996876Q159.49687 47.29375 156.91875 45.575L157.85625 44.403126L153.325 44.403126L154.34062 45.653126Q154.73125 46.04375 153.95 45.965626ZM152.46562 32.528126Q151.84062 33.54375 151.21562 34.325L156.05937 34.325L157.46562 32.528126L152.46562 32.528126ZM151.1375 41.434376L151.1375 43.153126L160.27812 43.153126L160.27812 41.434376L151.1375 41.434376ZM160.27812 38.54375L151.1375 38.54375L151.1375 40.184376L160.27812 40.184376L160.27812 38.54375ZM160.27812 37.29375L160.27812 35.575L151.1375 35.575L151.1375 37.29375L160.27812 37.29375ZM180.43437 43.465626Q181.52812 45.2625 182.075 45.41875Q182.46562 45.496876 182.54375 43.465626L184.10625 44.0125Q183.95 47.371876 182.85625 47.60625Q181.29375 47.91875 179.41875 44.871876Q177.62187 47.059376 175.27812 48.23125L174.34062 46.825Q175.59062 46.278126 176.21562 45.809376L172.3875 45.809376L172.3875 47.996876L171.05937 47.996876L171.05937 45.809376L166.29375 45.809376L166.29375 44.559376L171.05937 44.559376L171.05937 43.54375L169.34062 43.54375L167.62187 43.54375L167.62187 38.54375L171.05937 38.54375L171.05937 37.684376L166.91875 37.684376L166.91875 36.434376L171.05937 36.434376L171.05937 35.340626L166.29375 35.340626L166.29375 34.090626L171.05937 34.090626L171.05937 32.840626L167.62187 32.840626L167.62187 31.590626L171.05937 31.590626L171.05937 30.028126L172.30937 30.028126Q172.93437 30.10625 172.3875 30.496876L172.3875 31.590626L176.05937 31.590626L176.05937 32.840626L172.3875 32.840626L172.3875 34.090626L177.46562 34.090626L177.46562 30.184376L178.95 30.184376Q179.575 30.2625 179.02812 30.653126L179.02812 34.090626L183.6375 34.090626L183.6375 35.340626L179.10625 35.340626Q179.10625 39.403126 179.73125 41.590626Q180.5125 40.10625 181.29375 37.059376L182.7 37.60625Q183.24687 37.840626 182.62187 38.075Q181.68437 41.66875 180.43437 43.465626ZM172.3875 35.340626L172.3875 36.434376L176.68437 36.434376L176.68437 37.684376L172.3875 37.684376L172.3875 38.54375L175.90312 38.54375L175.90312 43.54375L172.3875 43.54375L172.3875 44.559376L176.60625 44.559376L176.60625 45.575Q177.93437 44.246876 178.6375 43.309376Q177.54375 40.41875 177.54375 35.340626L172.3875 35.340626ZM181.29375 33.621876Q180.27812 32.215626 179.65312 31.590626L180.90312 30.653126Q181.7625 31.278126 182.77812 32.684376L181.29375 33.621876ZM174.575 42.60625L174.575 41.5125L172.3875 41.5125L172.3875 42.60625L174.575 42.60625ZM171.05937 40.575L171.05937 39.48125L168.95 39.48125L168.95 40.575L171.05937 40.575ZM174.575 40.575L174.575 39.48125L172.3875 39.48125L172.3875 40.575L174.575 40.575ZM171.05937 42.60625L171.05937 41.5125L168.95 41.5125L168.95 42.60625L171.05937 42.60625ZM189.2625 35.2625L189.2625 30.340626L201.1375 30.340626L201.1375 35.2625L189.2625 35.2625ZM186.60625 37.45L186.60625 36.2L203.87187 36.2L203.87187 37.45L186.60625 37.45ZM195.90312 43.23125L195.90312 44.090626L201.60625 44.090626L201.60625 45.340626L195.90312 45.340626L195.90312 46.278126L204.10625 46.278126L204.10625 47.528126L186.37187 47.528126L186.37187 46.278126L194.575 46.278126L194.575 45.340626L188.79375 45.340626L188.79375 44.090626L194.575 44.090626L194.575 43.23125L191.91875 43.23125L189.2625 43.23125L189.2625 38.3875L201.1375 38.3875L201.1375 43.23125L195.90312 43.23125ZM199.80937 40.340626L199.80937 39.325L195.90312 39.325L195.90312 40.340626L199.80937 40.340626ZM195.90312 42.29375L199.80937 42.29375L199.80937 41.278126L195.90312 41.278126L195.90312 42.29375ZM190.59062 32.29375L199.80937 32.29375L199.80937 31.278126L190.59062 31.278126L190.59062 32.29375ZM190.59062 34.325L199.80937 34.325L199.80937 33.23125L190.59062 33.23125L190.59062 34.325ZM190.59062 40.340626L194.575 40.340626L194.575 39.325L190.59062 39.325L190.59062 40.340626ZM190.59062 42.29375L194.575 42.29375L194.575 41.278126L190.59062 41.278126L190.59062 42.29375ZM206.21562 45.809376Q206.7625 43.465626 206.84062 41.121876L208.55937 41.278126Q208.95 41.5125 208.40312 41.746876Q208.325 44.0125 207.7 46.5125L206.21562 45.809376ZM212.77812 40.809376Q213.6375 42.29375 213.87187 44.6375L212.30937 45.028126Q211.99687 42.528126 211.45 41.04375L212.77812 40.809376ZM209.49687 38.309376L212.075 38.153126L211.37187 36.903126L212.62187 36.278126Q214.02812 38.23125 214.41875 39.559376L212.93437 40.184376L212.62187 39.403126L210.90312 39.559376L210.90312 48.075L209.34062 48.075L209.34062 39.715626L206.68437 39.95Q206.60625 40.496876 206.29375 40.184376L205.98125 38.465626L207.62187 38.3875L208.87187 36.903126Q207.54375 35.8875 205.98125 34.871876L206.91875 33.621876L207.54375 34.0125L209.96562 30.10625L211.29375 30.8875Q211.84062 31.2 211.1375 31.278126L208.71562 34.715626L209.80937 35.575L211.91875 32.45L213.09062 33.23125Q213.71562 33.621876 212.93437 33.621876L209.49687 38.309376ZM218.87187 34.325L217.075 37.60625L221.1375 37.528126Q220.66875 36.903126 219.8875 36.04375L221.05937 35.10625Q222.77812 36.746876 223.87187 38.621876L222.46562 39.6375L221.91875 38.778126L220.98125 38.85625L220.98125 45.41875Q220.98125 46.04375 221.52812 46.04375L222.23125 46.04375Q222.7 46.04375 222.77812 45.340626L222.85625 44.16875L224.41875 44.6375L224.2625 45.965626Q224.10625 47.528126 222.93437 47.528126L220.825 47.528126Q219.41875 47.528126 219.41875 46.2L219.41875 39.0125L217.54375 39.090626L217.54375 42.45Q217.54375 47.059376 213.16875 48.153126L212.54375 46.5125Q215.98125 45.809376 215.98125 42.371876L215.98125 39.16875L215.12187 39.246876Q215.04375 39.79375 214.73125 39.48125L214.34062 37.684376L215.59062 37.684376L217.15312 34.325L214.10625 34.325L214.10625 32.840626L217.77812 32.840626L217.77812 30.028126L219.2625 30.028126Q219.8875 30.10625 219.34062 30.496876L219.34062 32.840626L223.79375 32.840626L223.79375 34.325L218.87187 34.325ZM238.48125 36.434376L238.48125 30.184376L239.96562 30.184376Q240.74687 30.340626 240.04375 30.73125L240.04375 36.434376L244.02812 36.434376L244.02812 37.91875L240.04375 37.91875L240.04375 47.60625L238.48125 47.60625L238.48125 37.91875L234.2625 37.91875L234.2625 36.434376L238.48125 36.434376ZM233.6375 47.371876L232.075 47.371876L232.075 46.590626L228.87187 46.590626L228.87187 47.684376L227.30937 47.684376L227.30937 41.278126L233.6375 41.278126L233.6375 47.371876ZM228.87187 42.528126L228.87187 45.340626L232.075 45.340626L232.075 42.528126L228.87187 42.528126ZM233.16875 38.621876L233.16875 40.10625L227.77812 40.10625L227.77812 38.621876L233.16875 38.621876ZM227.77812 36.04375L233.16875 36.04375L233.16875 37.528126L227.77812 37.528126L227.77812 36.04375ZM226.29375 33.465626L234.575 33.465626L234.575 34.95L226.29375 34.95L226.29375 33.465626ZM233.16875 30.653126L233.16875 32.1375L227.77812 32.1375L227.77812 30.653126L233.16875 30.653126Z" fill-rule="nonzero"/><path fill="#757575" d="M255.87187 50.403126Q254.41875 48.575 253.41875 46.121876Q252.41875 43.653126 252.41875 41.0125Q252.41875 38.684376 253.16875 36.559376Q254.04375 34.090626 255.87187 31.6375L257.1375 31.6375Q255.95 33.66875 255.575 34.54375Q254.98125 35.8875 254.6375 37.35625Q254.21562 39.184376 254.21562 41.028126Q254.21562 45.715626 257.1375 50.403126L255.87187 50.403126ZM265.65314 46.2L263.8875 46.2L263.8875 34.996876Q263.2625 35.60625 262.23126 36.215626Q261.2 36.809376 260.3719 37.121876L260.3719 35.41875Q261.85626 34.73125 262.95 33.746876Q264.0594 32.746876 264.5125 31.825L265.65314 31.825L265.65314 46.2ZM271.66876 50.403126L270.41876 50.403126Q273.325 45.715626 273.325 41.028126Q273.325 39.184376 272.91876 37.3875Q272.575 35.91875 271.98126 34.575Q271.60626 33.684376 270.41876 31.6375L271.66876 31.6375Q273.5125 34.090626 274.3875 36.559376Q275.1375 38.684376 275.1375 41.0125Q275.1375 43.653126 274.1219 46.121876Q273.1219 48.575 271.66876 50.403126Z" fill-rule="nonzero"/></svg>